<svg width="33" height="30" viewBox="0 0 33 30" fill="none" xmlns="http://www.w3.org/2000/svg">
<g clip-path="url(#clip0)">
<path d="M0 3.2C0 1.43 1.43 0 3.2 0C4.97 0 6.4 1.43 6.4 3.2C6.4 4.97 3.8 8.78 3.2 8.78C2.6 8.78 0 4.96 0 3.2Z" fill="#50A246"/>
<path d="M4.20001 13.86H2.20001V10.36H5.70001V12.36H4.20001V13.86Z" fill="#50A246"/>
<path d="M26.34 29.76H21.17V27.76H26.34V29.76V29.76ZM19.1 29.76H13.93V27.76H19.1V29.76ZM11.87 29.76H7.47001C7.16001 29.76 6.84001 29.73 6.53001 29.68L6.88001 27.71C7.07001 27.74 7.27001 27.76 7.46001 27.76H11.86V29.76H11.87ZM28.58 29.67L28.21 27.7C29.54 27.45 30.59 26.39 30.82 25.06L32.79 25.4C32.43 27.56 30.73 29.27 28.58 29.67ZM4.22001 28.65C2.94001 27.64 2.20001 26.13 2.20001 24.5V23.2H4.20001V24.49C4.20001 25.5 4.66001 26.44 5.46001 27.07L4.22001 28.65ZM32.88 23.17H30.88V18H32.88V23.17ZM4.20001 21.13H2.20001V15.96H4.20001V21.13ZM32.88 15.94H30.88V15.61C30.88 14.35 30.14 13.19 28.99 12.66L29.83 10.84C31.68 11.69 32.88 13.56 32.88 15.6V15.94ZM27.4 12.36H22.23V10.36H27.4V12.36ZM20.17 12.36H15V10.36H20.17V12.36ZM12.93 12.36H7.76001V10.36H12.93V12.36Z" fill="#50A246"/>
</g>
<defs>
<clipPath id="clip0">
<rect width="32.88" height="29.76" fill="white"/>
</clipPath>
</defs>
</svg>
