<svg width="23" height="30" viewBox="0 0 23 30" fill="none" xmlns="http://www.w3.org/2000/svg">
<path d="M22.8571 15.2044C22.8571 12.0396 21.5069 9.17802 19.3417 7.14066L17.7355 0H11.4084H5.0846L3.46831 7.18681C1.33008 9.22088 0 12.0626 0 15.2044C0 18.4022 1.37722 21.2868 3.58279 23.3275L5.0846 30H11.4117H17.7389L19.2306 23.3736C21.4597 21.3297 22.8571 18.4253 22.8571 15.2044ZM6.70764 1.97802H11.4084H16.1091L16.8735 5.36703C15.2538 4.5033 13.3984 4.01209 11.4286 4.01209C9.4385 4.01209 7.56966 4.51319 5.93989 5.39011L6.70764 1.97802ZM2.02037 15.2044C2.02037 10.1242 6.23958 5.99341 11.4286 5.99341C16.6176 5.99341 20.8368 10.1242 20.8368 15.2044C20.8368 18.0363 19.5235 20.5714 17.4661 22.2626L17.4089 22.2495L17.392 22.322C15.7656 23.6308 13.688 24.4154 11.4252 24.4154C9.13882 24.4154 7.04436 23.6143 5.41123 22.2824L5.4045 22.2495L5.37756 22.256C3.33025 20.5615 2.02037 18.0297 2.02037 15.2044ZM16.1125 28.022H11.4084H6.70764L6.04428 25.0681C7.65048 25.9121 9.48565 26.3934 11.4319 26.3934C13.3614 26.3934 15.1797 25.922 16.7725 25.0912L16.1125 28.022Z" fill="#50A246"/>
<path d="M11.4286 16.9977C12.0785 16.9977 12.6475 16.6648 12.9742 16.1637L17.126 16.1901L17.1395 14.212L12.9371 14.1824C12.7991 13.9879 12.624 13.8197 12.4186 13.6911V8.2417H10.3982V13.7208C9.9133 14.0439 9.59677 14.5879 9.59677 15.2043C9.59677 16.1933 10.4184 16.9977 11.4286 16.9977Z" fill="#50A246"/>
</svg>
