<svg width="31" height="30" viewBox="0 0 31 30" fill="none" xmlns="http://www.w3.org/2000/svg">
<path d="M23.94 3.2C23.94 1.43 25.37 0 27.14 0C28.91 0 30.34 1.43 30.34 3.2C30.34 4.97 27.74 8.79 27.14 8.79C26.54 8.78 23.94 4.96 23.94 3.2Z" fill="#50A246"/>
<path d="M0 19.42C0 17.65 1.43 16.22 3.2 16.22C4.97 16.22 6.4 17.65 6.4 19.42C6.4 21.19 3.8 25.01 3.2 25.01C2.6 25.01 0 21.19 0 19.42Z" fill="#50A246"/>
<path d="M27.14 11.1201C10.78 11.1201 23.68 28.0201 4.44 28.0201" stroke="#50A246" stroke-width="2" stroke-miterlimit="10" stroke-linecap="round"/>
</svg>
