<?xml version="1.0" standalone="no"?>
<!DOCTYPE svg PUBLIC "-//W3C//DTD SVG 1.1//EN" "http://www.w3.org/Graphics/SVG/1.1/DTD/svg11.dtd" >
<svg xmlns="http://www.w3.org/2000/svg">
<metadata></metadata>
<defs>
<font id="neythalregular" horiz-adv-x="832" >
<font-face units-per-em="2048" ascent="1638" descent="-410" />
<missing-glyph horiz-adv-x="564" />
<glyph horiz-adv-x="0" />
<glyph horiz-adv-x="0" />
<glyph horiz-adv-x="0" />
<glyph horiz-adv-x="0" />
<glyph unicode=" "  horiz-adv-x="564" />
<glyph unicode="&#x09;" horiz-adv-x="564" />
<glyph unicode="&#xa0;" horiz-adv-x="564" />
<glyph unicode="!" horiz-adv-x="290" d="M166 410q-6 -22 -27 -24t-27 22q-20 78 -30 163t-15 172t-7 174t-2 169q0 44 -1 107t9 126t37 114t81 71q24 8 42 -4t16 -38q-6 -144 -24 -285t-40 -285q-6 -28 -32 -32q0 -8 2 -10q2 -52 9 -108t13 -113t6 -113t-10 -106zM156 1356q-18 -48 -24 -112t-2 -132 q8 60 15 121t11 123zM180 130q18 -12 28 -22q28 -32 7 -62t-47 -50q-14 -10 -31 -8t-29 13t-15 26t9 31q0 2 1 3t1 3q-14 10 -19 28t1 34q4 12 14 19t20 5q16 0 36 -10q16 4 22 -6q2 -2 2 -4z" />
<glyph unicode="&#x22;" horiz-adv-x="586" d="M252 1454q4 -6 6 -11t0 -11q-2 -38 0 -74q0 -18 -15 -28t-31 -10t-30 -2t-30 -4t-31 5t-21 23q-20 50 -28 109t1 114t39 101t86 74q16 8 30 3t22 -17t7 -27t-13 -27q-46 -40 -64 -86t-16 -98q16 4 31 6t27 2q14 0 23 -13t9 -27q0 -2 -2 -2zM460 1708q14 10 29 7t24 -13 t9 -25t-12 -29q-64 -56 -84 -132q16 10 38 2t26 -32l4 -16t6 -18q12 -32 -16 -52l4 -24t6 -24q8 -20 -7 -40t-39 -10q-60 24 -96 75t-26 119q10 70 46 120t88 92z" />
<glyph unicode="#" horiz-adv-x="958" d="M868 700q22 0 20 -20t-18 -24q-62 -22 -126 -32t-128 -16q-28 -124 -68 -241t-86 -223q-6 -16 -17 -20t-21 0t-16 15t-2 25q26 114 57 221t59 217q-22 -2 -45 -2t-45 -2q-22 -102 -48 -201t-54 -195q-6 -16 -19 -20t-26 0t-21 17t-2 29q28 92 50 184t40 184 q-64 -4 -127 -7t-125 -11q-12 -2 -19 4t-9 15t2 17t16 10q68 16 136 26t138 18q10 52 18 102t16 102q-84 4 -163 9t-157 21q-12 2 -17 10t-4 16t7 15t18 5q78 -12 159 -12t165 4q14 112 24 223t20 225q2 12 15 12t15 -12q16 -108 16 -219t-10 -225q28 0 57 1t57 -1 q14 84 22 167t8 169q0 16 18 17t20 -15q10 -82 11 -167t-7 -173q52 -4 102 -14t100 -26q20 -10 15 -30t-25 -18q-52 6 -101 8t-99 4q-12 -88 -30 -174q58 4 117 6t117 2zM448 678q26 2 49 4t47 4q12 46 22 91t20 91q-28 2 -54 2h-52q-6 -48 -14 -96t-18 -96z" />
<glyph unicode="$" horiz-adv-x="664" d="M382 1384q22 -318 18 -642q38 -60 74 -122t62 -127t41 -134t11 -141q-4 -62 -26 -106t-56 -71t-77 -39t-87 -10q-10 -70 -20 -137t-26 -133q-4 -22 -21 -32t-34 -8t-29 14t-8 34q16 70 27 140t21 140q-72 30 -123 98t-47 172q0 18 13 28t28 10t28 -9t15 -27 q4 -70 31 -112t67 -64q16 154 21 306t7 304q-26 44 -51 86t-47 88q-26 56 -52 120t-41 130t-16 132t23 130q26 62 78 88t116 22q2 58 4 115t6 113q2 22 23 23t23 -21l18 -240q68 -20 129 -63t89 -98t12 -119t-100 -124q-14 -10 -27 -7t-20 12t-7 21t10 24q30 32 34 66 t-10 66t-42 59t-62 45zM218 1092q16 -46 35 -92t41 -88q0 126 1 251t5 251q-28 4 -53 -3t-43 -26t-25 -52t-1 -81q6 -40 15 -80t25 -80zM354 88q34 4 64 21t50 47t27 72t-5 94q-16 64 -41 122t-55 114q-4 -118 -14 -235t-26 -235z" />
<glyph unicode="%" horiz-adv-x="922" d="M220 1444q14 -4 17 -17t-3 -25q-20 -28 -47 -45t-37 -51q-12 -32 -17 -65t3 -67q10 -70 37 -139t85 -115q-14 0 -28 -1t-30 -1q54 50 85 123t35 145q4 36 1 76t-21 74q-22 34 -51 51t-59 43q-16 14 -14 38t28 28q54 6 94 -19t66 -66t39 -92t13 -95q0 -104 -39 -206 t-115 -172q-10 -10 -27 -12t-31 8q-40 32 -71 76t-52 93t-32 102t-9 105q2 32 13 77t33 82t55 58t79 9zM704 1640q6 12 16 13t19 -3t14 -14t1 -20q-44 -108 -76 -218t-62 -221t-61 -221t-73 -216q-82 -202 -165 -400t-149 -404q-6 -18 -22 -23t-31 0t-24 20t-3 35 q38 116 84 230t94 227t94 227t84 230q32 96 57 193t53 193t63 190t87 182zM614 552q8 6 17 2t13 -12t4 -16t-10 -14q-56 -40 -62 -104t18 -131t69 -125t89 -84q-16 -2 -30 -4t-28 -6q26 30 55 71t47 87t17 92t-33 86q-28 34 -61 52t-69 27t-74 13t-78 10q-12 2 -20 11 t-11 19t1 20t18 16q48 18 105 18t111 -17t98 -51t66 -86q24 -56 25 -112t-15 -109t-46 -102t-68 -93q-26 -30 -58 -10q-66 36 -119 111t-75 159t-1 162t105 120z" />
<glyph unicode="&#x26;" horiz-adv-x="1298" d="M1148 1266q66 -36 94 -87t21 -102t-47 -93t-108 -58q-64 -16 -117 -4t-81 43t-24 79t56 104q14 16 32 15t30 -12t16 -27t-10 -32q-34 -40 -32 -60t24 -26t55 -1t63 15q34 12 52 34t6 58q-14 38 -43 60t-64 31t-73 6t-70 -13q-72 -24 -118 -74t-63 -109t-3 -116t64 -97 q30 -8 55 -19t49 -25q0 -2 2 -2q34 -8 33 -11t-9 -7l10 -10t12 -10q10 -4 28 -6q10 -2 10 -12q0 -6 -4 -10l8 -18q4 -6 10 -12t10 -14q50 -68 59 -142t-11 -143t-65 -133t-105 -113t-130 -81t-140 -40q-8 0 -20 4q-144 -22 -258 35t-187 161t-101 237t-1 262t113 238 t242 163q-76 78 -75 153t47 135t120 98t144 41t120 -37t48 -134q0 -14 -14 -20q-4 -18 -8 -34t-16 -32q-24 -34 -65 -39t-75 -3q-16 2 -27 13t-13 23q-2 28 -3 58t3 58q2 18 15 27t27 10t27 -7t15 -26q6 -34 2 -78q14 -2 27 1t23 17q4 10 9 20t9 20q-24 58 -68 75t-91 5 t-88 -46t-56 -81t3 -99t88 -100q26 -18 19 -50t-39 -38q-152 -30 -240 -113t-123 -189t-19 -222t74 -213t154 -161t222 -68q12 12 22 14q76 18 162 64t148 113t83 151t-33 176q-40 66 -112 106q-24 4 -47 11t-45 27q-70 18 -144 10t-138 -44q-48 -28 -73 -78t-22 -98t36 -81 t103 -25q38 4 71 18t50 34t10 46t-49 56q-20 14 -21 35t10 37t30 22t39 -8q68 -48 86 -106t-3 -108t-75 -85t-132 -39q-82 -6 -143 29t-90 92t-22 128t59 139q28 36 70 61t89 40t96 20t95 3q-4 8 -8 15t-8 15q-28 66 -23 132t34 124t79 104t111 71t128 24t131 -35z" />
<glyph unicode="'" horiz-adv-x="290" d="M174 1708q14 10 28 7t23 -13t10 -25t-11 -29q-64 -56 -84 -132q16 10 37 2t25 -32l4 -16t6 -18q8 -16 2 -29t-18 -23l4 -24t6 -24q4 -10 2 -21t-8 -19t-16 -11t-22 1q-60 24 -97 75t-27 119q10 70 46 120t90 92z" />
<glyph unicode="(" horiz-adv-x="606" d="M448 1504q-102 -72 -167 -211t-94 -310t-22 -357t49 -354t118 -301t186 -195q22 -12 26 -34t-4 -40t-26 -26t-40 4q-92 52 -164 150t-125 224t-85 273t-40 298t7 299t56 276t108 227t163 155q20 12 38 6t28 -20t9 -32t-21 -32z" />
<glyph unicode=")" horiz-adv-x="574" d="M138 1504q-20 14 -21 32t9 32t28 20t38 -6q96 -56 163 -155t108 -227t56 -276t7 -299t-40 -298t-85 -273t-125 -224t-164 -150q-22 -12 -40 -4t-26 26t-4 40t26 34q110 62 186 195t117 301t48 354t-22 357t-94 310t-165 211z" />
<glyph unicode="*" horiz-adv-x="776" d="M704 1298q20 -6 24 -24t-6 -34q-20 -36 -74 -59t-116 -39q28 -20 55 -40t51 -44q20 -18 22 -40t-10 -39t-33 -23t-43 10q-34 24 -70 48t-74 50q6 -32 12 -63t14 -63q4 -22 -6 -34t-26 -15t-32 5t-22 28q-14 48 -22 94t-14 96q0 -2 -2 -2q-36 -52 -76 -101t-88 -89 q-16 -14 -34 -11t-31 14t-16 29t9 34q26 30 48 61t44 61q-42 6 -78 25t-60 59q-14 20 5 38t39 10q38 -16 75 -21t77 -5q-46 44 -80 95t-54 109q-6 18 12 31t34 -5q34 -44 75 -80t85 -70l4 4q-2 54 -1 108t3 108q0 18 11 25t24 6t24 -11t11 -26q2 -28 2 -53t2 -53 q32 42 65 82t69 76q10 10 20 9t18 -8t10 -18t-4 -21q-44 -68 -85 -141t-81 -147q4 0 8 1t8 1q30 8 66 22t73 27t73 18t66 -5z" />
<glyph unicode="+" horiz-adv-x="970" d="M848 738q24 -2 34 -19t9 -36t-15 -34t-38 -13q-72 10 -145 14t-147 8q-6 -86 -9 -170t1 -168q2 -26 -13 -39t-33 -13t-32 12t-12 38q4 84 8 169t8 173q-88 4 -174 6t-176 8q-16 2 -25 14t-9 26t7 26t25 14q90 6 178 8t178 0q4 76 5 152t3 154q0 20 15 30t31 8t30 -14 t14 -34q2 -76 -2 -150t-12 -150q76 -4 149 -8t147 -12z" />
<glyph unicode="," horiz-adv-x="290" d="M122 -174q-14 -12 -28 -9t-23 14t-10 26t13 27q28 28 51 63t33 71q-16 -10 -39 -3t-27 31q-2 10 -4 17t-6 17q-6 16 -1 30t17 24q-2 20 -10 46q-10 22 5 42t39 10q58 -24 96 -74t28 -120q-10 -68 -45 -119t-89 -93z" />
<glyph unicode="-" horiz-adv-x="522" d="M420 736q20 -4 28 -18t6 -29t-13 -26t-29 -7q-84 16 -163 13t-163 -5q-16 0 -22 8t-6 20t7 23t19 15q78 22 167 21t169 -15z" />
<glyph unicode="." horiz-adv-x="194" d="M160 114q4 -10 3 -17t-3 -13q0 -14 -8 -30q-10 -14 -29 -25t-37 -11h-6q-24 4 -34 22q-14 20 -13 43t5 33v2q10 26 36 26q4 0 6 -2q8 6 20 6q14 0 24 -8q12 0 18 -2q8 -2 12 -10t6 -14z" />
<glyph unicode="/" horiz-adv-x="716" d="M626 1602q6 12 17 16t20 0t15 -13t2 -23q-56 -228 -110 -462t-117 -465t-139 -458t-176 -439q-12 -26 -33 -31t-38 4t-25 30t6 45q78 138 133 285t97 299t78 306t74 308t84 304t112 294z" />
<glyph unicode="0" horiz-adv-x="740" d="M662 870q4 -54 9 -131t4 -164t-10 -176t-34 -167t-68 -137t-113 -85q-104 -40 -178 -15t-121 98t-71 182t-28 237t9 263t38 259t61 227t76 167q-16 6 -20 25t18 27q92 38 158 26t112 -58t75 -119t46 -154t25 -161t12 -144zM344 60q54 -14 100 36t80 142t54 214t24 252 t-11 257t-51 228t-95 167t-145 72q-36 -68 -76 -189t-69 -265t-42 -295t4 -280t71 -222t156 -117z" />
<glyph unicode="1" horiz-adv-x="276" d="M178 1500q10 10 25 3t13 -23q-32 -184 -34 -366t4 -364t7 -365t-23 -365q-2 -18 -16 -27t-29 -7t-26 13t-9 29q16 110 17 221t-5 222t-13 222t-9 223q-2 62 -6 143t1 163t28 156t75 122z" />
<glyph unicode="2" horiz-adv-x="678" d="M246 1078q6 -14 1 -26t-16 -18t-23 -6t-20 12q-42 58 -49 127t13 132t60 113t91 73t108 11t111 -74q62 -72 84 -161t15 -183t-36 -186t-67 -170q-58 -114 -122 -222t-128 -220q-24 -42 -47 -81t-27 -67t21 -45t97 -17q52 0 105 1t105 1q20 0 30 -13t8 -29t-14 -30 t-32 -14q-54 0 -107 -1t-105 2t-103 12t-103 29q-16 6 -24 23t0 33q48 108 112 212t128 209t119 212t83 225q6 26 11 79t3 114t-13 122t-36 102t-67 54t-104 -21q-50 -28 -74 -63t-28 -76t7 -86t33 -89z" />
<glyph unicode="3" horiz-adv-x="678" d="M360 762q72 -20 124 -93t81 -163t32 -181t-27 -149q-24 -48 -59 -89t-78 -66t-93 -29t-106 22q-40 18 -76 57t-58 85t-27 96t17 92q12 24 38 23t32 -29q8 -34 12 -72t14 -73t32 -63t64 -42t80 -3t68 38t50 65t24 78q6 58 -4 134t-40 141t-81 107t-127 30q-24 -4 -37 15 t-5 39q-10 16 -4 38t32 28q66 16 116 62t82 108t44 131t0 133q-8 38 -23 73t-39 62t-58 42t-76 15q-52 0 -92 -23t-58 -59t-8 -78t58 -78q12 -10 13 -22t-6 -22t-20 -14t-25 4q-76 52 -94 111t3 112t71 94t113 56t129 -3t118 -80q60 -74 76 -167t-3 -186t-71 -175t-128 -132 z" />
<glyph unicode="4" horiz-adv-x="772" d="M704 560q20 -6 26 -21t0 -30t-21 -25t-35 -4q-34 10 -68 13t-70 5q-8 -118 -13 -234t-3 -236q0 -20 -13 -29t-30 -8t-30 13t-13 32q4 116 9 231t11 231q-90 -4 -180 -14t-180 -6q-20 2 -33 20t-3 36q56 116 105 243t102 253t117 244t150 216q12 12 26 13t25 -6t14 -20 t-5 -27q-8 -10 -14 -22t-14 -24q12 -206 3 -411t-25 -413q84 0 162 -20zM162 562q76 0 149 7t147 11q10 184 23 365t29 363q-102 -182 -180 -370t-168 -376z" />
<glyph unicode="5" horiz-adv-x="664" d="M544 790q66 -132 70 -280t-58 -280q-24 -48 -61 -95t-84 -81t-101 -52t-112 -6q-60 12 -92 51t-44 92t-9 110t15 103q2 12 12 16t21 1t19 -11t6 -20q-4 -36 -4 -87t13 -96t44 -71t89 -12q44 10 82 35t69 59t54 75t37 83q34 98 23 207t-59 203q-52 100 -127 125t-171 -9 q-4 -26 -29 -31t-39 13q-28 6 -34 37t24 49q2 2 3 2t3 2q8 126 5 251t-13 251q-10 6 -14 17t-2 23t9 20t21 8q102 6 199 7t199 3q22 0 32 -14t9 -31t-14 -32t-35 -15q-90 2 -176 2t-172 4q26 -112 23 -230t-1 -234q110 36 211 -7t159 -155z" />
<glyph unicode="6" horiz-adv-x="622" d="M566 576q22 -96 13 -197t-51 -185t-117 -141t-185 -69q-30 -2 -42 22q-78 140 -108 307t-25 340t38 343t79 320q32 100 95 147t127 41t117 -63t63 -165q2 -22 -11 -35t-29 -16t-31 6t-17 31q-206 192 -230 24q-12 -44 -22 -87t-20 -89q-6 -40 -12 -81t-16 -81 q-10 -48 -18 -97t-14 -101q72 36 137 51t120 -2t96 -70t63 -153zM500 396q2 34 -4 101t-29 127t-69 93t-124 1q-34 -14 -66 -27t-64 -25q-4 -60 -4 -120t8 -118q2 -18 6 -56t11 -83t19 -91t31 -78t44 -45t61 9q86 50 132 132t48 180z" />
<glyph unicode="7" horiz-adv-x="776" d="M658 1516q24 4 39 -12t15 -40q-2 -130 -33 -250t-76 -237t-98 -230t-98 -230t-76 -237t-31 -250q0 -22 -15 -32t-32 -8t-32 14t-15 34q0 124 29 241t72 229t94 222t97 221t78 226t40 237q-126 -16 -253 -16t-255 -14q-20 -2 -31 8t-14 25t5 29t26 20q68 18 139 24t142 7 t142 4t141 15z" />
<glyph unicode="8" horiz-adv-x="656" d="M362 798q64 -52 117 -125t86 -154t39 -163t-26 -154t-97 -130t-139 -78t-144 11t-108 133q-30 78 -25 159t31 160t68 157t88 154q-18 10 -38 19t-40 17q-28 12 -28 40q-74 68 -95 158t-5 180t62 168t108 123t132 43t136 -72q60 -64 65 -145t-22 -167t-74 -173t-91 -161z M210 884q22 -6 45 -16t45 -22q22 40 43 76t37 74q34 70 67 145t31 155q-2 62 -37 94t-82 38t-95 -13t-78 -61q-40 -58 -61 -121t-19 -125t27 -120t77 -104zM422 120q60 64 74 145t-5 163t-66 159t-109 133l-7 -14t-7 -12q-40 -70 -80 -143t-62 -151q-28 -82 -20 -160 q32 -216 282 -120z" />
<glyph unicode="9" horiz-adv-x="794" d="M714 950q8 -78 16 -162t9 -168t-7 -168t-28 -162q-16 -62 -48 -120t-78 -102t-106 -66t-128 -10q-62 10 -95 48t-44 88t-2 105t29 99q10 18 32 14t18 -26q-6 -32 -10 -76t4 -83t31 -67t75 -26q46 0 86 20t71 51t53 71t32 82q22 84 24 172t0 172q-8 198 -41 372t-101 354 q-6 0 -14 8q-36 48 -72 55t-70 -13t-64 -59t-55 -84t-42 -89t-25 -72t-15 -62t-9 -68t3 -67t23 -59q26 -44 72 -85t99 -61t104 -10t91 68q8 10 19 11t19 -5t12 -16t-4 -20q-40 -50 -89 -75t-101 -27t-105 18t-101 62q-88 80 -112 171t4 205q8 38 34 97t62 118t80 110t90 76 t93 13t89 -78q12 2 24 -2q52 -22 83 -81t48 -130t24 -142t13 -119z" />
<glyph unicode=":" horiz-adv-x="208" d="M54 878q-12 26 -2 64q0 2 -1 2t-1 2q-2 24 21 39t41 5h18q12 -4 24 -11t16 -19q16 -46 -22 -90q-22 -20 -51 -20t-43 28zM160 480q12 -20 8 -44q8 -22 -10 -40l-12 -8l-12 -8q-4 -2 -16 -7t-4 1q-12 -10 -32 -7t-26 23q-16 40 0 81t56 59q18 8 32 0t18 -24q6 -14 -2 -26z " />
<glyph unicode=";" horiz-adv-x="340" d="M244 1048q16 -6 23 -19t9 -28t-1 -31t-5 -30q-4 -16 -14 -28t-26 -14h-2q-12 -16 -25 -27t-23 -21t-27 -13t-31 3q-34 16 -53 47t1 71q4 6 7 12t9 14q0 28 15 39t37 11t34 -10q16 14 33 24t39 0zM148 482q18 8 39 1t31 -29q20 -46 28 -98t2 -104t-25 -100t-55 -84 q-10 -8 -21 -8t-21 5t-16 14t-4 21q8 68 26 130t6 126q-18 -8 -36 0t-28 23t-10 33t18 32q-4 14 2 27t17 19t23 5t24 -13z" />
<glyph unicode="&#x3c;" horiz-adv-x="880" d="M798 950q14 0 22 -8t8 -19t-7 -22t-19 -15q-148 -38 -292 -87t-292 -87q124 -84 260 -142q32 -16 68 -28t72 -25t70 -29t64 -38q22 -16 12 -35t-32 -21q-46 -2 -93 11t-95 33t-93 43t-83 43q-74 38 -143 80t-133 94q-22 16 -17 44t33 34q86 18 172 48t172 58t172 49 t174 19z" />
<glyph unicode="=" horiz-adv-x="796" d="M708 860q-80 -2 -162 -11t-165 -16t-165 -9t-162 10q-22 4 -23 24t21 24q162 30 331 44t333 14q20 0 28 -12t7 -27t-12 -28t-31 -13zM696 588q20 -2 31 -16t12 -31t-9 -32t-30 -15q-70 -4 -140 0t-139 8t-139 5t-140 -11q-16 -4 -30 4q-10 -8 -24 1t-10 25q4 14 5 18 t5 -10q-4 22 7 37t29 19q66 16 139 20t146 0t146 -11t141 -11z" />
<glyph unicode="&#x3e;" horiz-adv-x="866" d="M88 950q90 2 177 -19t172 -49t171 -58t172 -48q30 -6 35 -34t-19 -44q-64 -52 -133 -94t-143 -80q-38 -20 -83 -43t-92 -43t-95 -33t-92 -11q-24 2 -34 21t12 35q58 44 134 67t142 53q138 58 258 142q-148 38 -292 87t-292 87q-12 4 -18 15t-6 22t6 19t20 8z" />
<glyph unicode="?" horiz-adv-x="574" d="M444 1406q34 -50 57 -107t31 -117t-1 -120t-37 -116q-34 -64 -74 -124t-74 -122t-53 -129t-9 -143q2 -24 -12 -39t-33 -18t-36 6t-19 33q-4 92 17 163t54 135t74 128t75 142q20 46 28 111t-1 129t-39 116t-88 72q-56 18 -93 3t-56 -49t-23 -80t4 -88q2 -18 -8 -32 t-25 -18t-30 1t-21 23q-24 64 -16 124t38 108t75 79t97 36t104 -19t94 -88zM282 142q34 -4 61 -19t27 -55q0 -20 -11 -37t-28 -29t-38 -17t-39 -1q-22 6 -30 25t-12 43q-2 2 -3 4t-3 4q-20 22 -13 40t29 30q10 14 27 16t33 -4z" />
<glyph unicode="@" horiz-adv-x="1532" d="M1398 220q14 14 31 11t29 -14t16 -28t-8 -33q-90 -130 -201 -198t-229 -87t-239 7t-232 84t-207 144t-166 188t-108 214t-31 222t63 214t174 190q84 60 179 92t194 36t197 -17t188 -67q72 -36 137 -96t110 -134t64 -157t-1 -167q-8 -36 -27 -85t-47 -97t-64 -89t-78 -64 t-89 -20t-99 43q-46 34 -69 80t-33 100q-16 -30 -36 -55t-42 -47q-32 -30 -77 -52t-94 -30t-95 4t-80 50q-60 68 -72 141t12 138t76 119t120 84t145 30t149 -38q12 -6 12 -18q8 18 15 36t17 36q10 20 27 26t33 0t26 -22t4 -38q-18 -58 -30 -120t-16 -124q-2 -40 -2 -85 t20 -81q24 -46 57 -59t67 -5t64 33t50 57q50 80 63 166t-8 165t-75 148t-140 117q-72 40 -162 61t-184 20t-184 -24t-163 -71t-122 -122t-57 -176q-10 -106 19 -208t86 -192t136 -164t169 -124q114 -64 223 -82t211 5t198 82t186 147zM750 520q34 64 60 132t50 138 q-12 -14 -28 -8q-60 24 -127 18t-123 -38t-92 -85t-34 -125t37 -105t83 -33t97 29t77 77z" />
<glyph unicode="A" d="M774 24q0 -18 -9 -29t-22 -13t-26 5t-17 23q-24 96 -46 190t-44 190q-96 -18 -195 -31t-195 -9q-22 -82 -47 -162t-53 -162q-6 -18 -21 -23t-28 0t-21 19t-2 32q108 318 178 639t100 655q-8 30 -14 61t-10 59q-4 16 10 25t26 -1v6q0 14 10 20t21 5t20 -9t9 -22 q-2 -22 -3 -45t-3 -47q64 -124 101 -264t77 -270q30 -102 63 -206t61 -210t50 -213t30 -213zM238 426q90 10 178 20t176 26q-16 76 -35 150t-41 150q-30 104 -69 207t-75 211q-20 -194 -53 -384t-81 -380z" />
<glyph unicode="B" horiz-adv-x="582" d="M320 740q80 -28 127 -83t68 -122t17 -141t-29 -142t-67 -126t-98 -91t-124 -37t-142 34q-16 -2 -31 9t-15 31q4 336 16 666t18 664q0 10 2 14q-4 18 12 28q98 62 184 50t149 -73t97 -154t29 -192t-56 -190t-157 -145zM116 766q116 12 195 69t119 133t40 159t-40 150 t-120 103t-200 20v-2q2 -158 1 -317t-5 -317q4 0 6 1t4 1zM102 104q106 -26 183 9t120 101t51 151t-23 158t-106 121t-195 42q-16 -4 -26 6q-2 -148 -3 -294t-1 -294z" />
<glyph unicode="C" horiz-adv-x="670" d="M616 1358q4 -18 -12 -26t-28 6q-76 74 -152 82t-136 -29t-99 -110t-39 -159q-2 -76 3 -150t1 -150q-4 -108 -10 -215t6 -211q4 -58 15 -123t57 -107q150 -178 222 90q-2 22 10 35t28 16t31 -5t19 -30q12 -76 -1 -136t-50 -96t-95 -41t-134 29q-62 30 -101 77t-61 105 t-30 124t-8 133t4 131t6 118q2 48 -2 109t-7 128t-2 136t11 132t34 115t68 88t116 58t143 19t126 -36t67 -107z" />
<glyph unicode="D" horiz-adv-x="796" d="M630 1362q62 -78 86 -167t27 -183t-7 -190t-16 -186q-8 -148 -45 -277t-112 -217t-193 -127t-288 -5q-14 2 -22 12t-9 22t5 22t22 12q22 4 44 5t44 3v2q36 168 51 336t14 335t-15 334t-36 337h-36q-14 0 -22 10t-8 22t7 22t21 12q72 2 139 5t129 -8t117 -40t103 -91z M642 646q8 72 18 152t12 161t-12 159t-54 144q-36 60 -76 94t-84 51t-94 20t-104 3q70 -326 74 -669t-70 -671q42 4 85 11t81 21t71 38t55 64q30 48 46 100t25 105t14 107t13 110z" />
<glyph unicode="E" horiz-adv-x="772" d="M674 1476q20 0 29 -13t8 -30t-13 -30t-32 -13q-122 2 -251 4t-253 24q4 -158 0 -313t-6 -313q64 -8 125 -11t125 3q16 2 37 7t42 8t42 2t37 -9q12 -8 12 -21t-4 -23q-12 -20 -38 -29t-57 -12t-61 -3h-48q-52 0 -108 2t-104 26v-125t2 -125q0 2 0 -26t1 -71t4 -94t10 -95 t19 -74t30 -30q40 -2 79 -3t79 -3q66 -4 122 -10t118 -28q14 -6 19 -17t2 -23t-13 -21t-24 -7q-116 14 -231 17t-229 17q-34 4 -38 36q-40 346 -35 690t21 692q-14 8 -12 22t12 22q2 0 2 2q0 14 8 21t18 9t20 -3t16 -15q62 8 128 7t132 -5t131 -10t127 -6z" />
<glyph unicode="F" horiz-adv-x="716" d="M636 1474q10 -6 11 -17t-9 -19q-16 -18 -41 -24t-55 -6t-59 4t-51 4q-70 0 -143 -2t-143 4q22 -158 32 -317t12 -321q92 26 190 48q12 2 34 9t43 9t38 -4t21 -28q6 -34 -28 -53t-87 -28t-111 -11t-100 -2q0 -176 -9 -349t-25 -345q-2 -16 -14 -24t-25 -9t-25 6t-12 23 q-14 176 -10 351t10 351t8 351t-14 353h-2q-24 4 -26 26t22 28q-2 8 -2 16t-2 16q-2 16 6 26t20 12t24 -4t16 -22q2 -8 2 -16t2 -18q70 8 139 6t139 -2q20 0 52 4t66 5t63 -5t43 -26z" />
<glyph unicode="G" horiz-adv-x="732" d="M646 1314q4 -10 0 -20t-12 -15t-18 -5t-18 10q-84 106 -160 124t-135 -18t-97 -111t-50 -157q-22 -156 -18 -316v-166t11 -179t41 -170t92 -139q48 -44 91 -55t81 3t69 48t52 78t32 93t11 93q-2 50 -7 99t-17 97q-10 36 -35 49t-52 7t-49 -29t-24 -55q-4 -70 2 -138 t14 -136q2 -22 -10 -34t-27 -15t-29 4t-16 27q-6 46 -16 108t-11 125t13 119t56 92q36 30 79 33t82 -15t69 -52t38 -76q10 -48 12 -118t-5 -146t-28 -149t-60 -125t-97 -76t-142 -2q-90 24 -149 85t-95 145t-52 183t-19 198t2 192t11 163q4 66 12 135t28 135t55 124t93 98 q54 38 115 40t118 -22t102 -69t67 -99z" />
<glyph unicode="H" horiz-adv-x="698" d="M600 1474q8 -180 22 -366t20 -373t-4 -372t-48 -365q-4 -18 -17 -26t-27 -6t-24 12t-6 28q32 178 33 354t-3 352q-46 -20 -102 -22t-102 -6q-42 -4 -86 -13t-88 -13q-8 -162 -20 -322t-18 -316q0 -14 -9 -21t-20 -7t-21 7t-12 19q-20 120 -23 242t2 244t14 245t14 245 t0 245t-29 245q-4 16 4 26t20 12t24 -4t16 -20q46 -184 57 -375t5 -385q46 14 94 22t88 14q46 6 96 15t92 -7q-6 174 -8 345t14 345q2 22 26 24t26 -22z" />
<glyph unicode="I" horiz-adv-x="244" d="M98 1478q0 18 11 25t24 6t24 -11t11 -26q6 -180 15 -360t11 -361t-11 -361t-49 -356q-4 -20 -20 -29t-32 -7t-27 13t-5 33q38 178 49 357t10 358t-8 359t-3 360z" />
<glyph unicode="J" horiz-adv-x="648" d="M598 1488q12 -8 9 -20t-13 -18q-18 -12 -40 -13t-44 -3q22 -78 31 -165t10 -176t-2 -177t-5 -166q-4 -70 -4 -149t-7 -158t-23 -155t-50 -140q-38 -70 -91 -106t-108 -43t-105 13t-81 61t-36 101t31 134q6 12 15 15t17 -1t13 -13t3 -21q-12 -56 10 -117t62 -96t91 -27 t93 88q34 58 47 109t21 113q10 86 15 169t7 167q6 186 0 365t-18 363v4q-20 -2 -46 -10q-18 -6 -28 2t-12 21t5 26t23 19q22 8 49 14t56 9t56 -1t49 -18z" />
<glyph unicode="K" horiz-adv-x="820" d="M734 54q6 -22 -3 -38t-24 -23t-32 -3t-23 24q-30 92 -70 180t-86 172l-92 168t-88 170q-12 -22 -25 -44t-23 -44q-8 -14 -20 -18t-22 0q-4 -146 -21 -291t-53 -289q-4 -16 -19 -22t-30 -2t-25 15t-6 27q34 184 54 367t22 371q0 86 -7 176t-13 179t-7 177t11 172 q2 16 20 21t24 -13q28 -82 40 -172t16 -183t2 -186t-4 -179v-50q10 22 21 41t21 39q-4 14 3 24t17 12q96 170 189 340t193 340q6 8 14 10t15 -3t11 -13t2 -18q-70 -190 -167 -366t-197 -352q116 -170 217 -346t165 -370z" />
<glyph unicode="L" horiz-adv-x="652" d="M136 1470q0 12 8 19t18 7t19 -6t9 -18q14 -220 0 -440l-28 -440q-8 -112 -14 -222t-4 -222q2 -48 56 -66t123 -20t132 6t83 10q18 2 29 -9t13 -25t-5 -26t-25 -12q-112 -8 -225 -7t-227 -1q-18 0 -28 16t-10 32q-4 178 6 356t24 356l28 356t18 356z" />
<glyph unicode="M" horiz-adv-x="914" d="M818 1492q2 -184 18 -367t25 -366t5 -367t-40 -366q-4 -20 -21 -29t-33 -8t-28 13t-6 32q36 168 44 338t2 339t-19 339t-19 340q-58 -84 -97 -179t-63 -195t-35 -203t-13 -205q0 -16 -11 -24t-24 -8t-25 8t-16 22q-28 100 -57 197t-67 189t-86 179t-112 167 q12 -164 26 -328t20 -329t-3 -328t-45 -325q-2 -12 -11 -17t-18 -4t-16 7t-7 18q16 178 16 355t-8 353t-21 353t-23 355q-2 30 24 43t48 -11q68 -70 122 -147t96 -159t76 -169t62 -177q22 190 84 369t188 323q20 22 44 12t24 -40z" />
<glyph unicode="N" horiz-adv-x="834" d="M678 1488q62 -158 85 -346t17 -383t-35 -385t-71 -350q-4 -16 -18 -21t-29 -2t-26 14t-7 29q2 4 2 10t2 10q-54 140 -113 280t-117 283t-111 286t-95 289q10 -304 3 -605t-47 -603q-2 -16 -14 -24t-24 -6t-21 11t-7 25q20 186 28 371t11 369t4 369t7 371q2 22 25 23 t25 -21v-24t2 -24q140 -290 249 -596t221 -610q44 314 47 621t-39 625q-2 10 4 18t14 10t16 -1t12 -13z" />
<glyph unicode="O" horiz-adv-x="818" d="M154 1424q132 90 236 94t180 -56t124 -170t70 -245t19 -283t-32 -284t-83 -247t-130 -173q-88 -70 -160 -68t-129 59t-99 156t-67 222t-34 258t0 263t34 238t69 182q-10 10 -11 27t13 27zM542 154q40 54 74 149t56 210t30 241t-2 243t-41 215t-88 156t-141 66t-202 -54 q-44 -84 -66 -184t-29 -204t-3 -207t14 -193q4 -40 18 -111t37 -148t57 -146t77 -105t95 -24t114 96z" />
<glyph unicode="P" horiz-adv-x="700" d="M644 1244q20 -110 -4 -201t-81 -158t-141 -107t-184 -48q10 -182 0 -360t-60 -348q-6 -18 -20 -23t-29 0t-25 19t-4 34q48 168 53 337t-5 341q-16 2 -23 13t-8 24t6 26t19 19q-14 154 -26 306t-8 306q-10 2 -18 2h-16q-16 2 -24 13t-9 24t6 24t23 13q78 6 171 4t177 -27 t148 -80t82 -153zM228 814q84 4 166 32t130 102q24 36 40 85t19 99t-9 99t-42 85q-34 40 -76 62t-89 32t-98 12t-101 2q14 -150 31 -302t29 -308z" />
<glyph unicode="Q" horiz-adv-x="772" d="M664 -50q16 0 24 -11t9 -25t-6 -25t-23 -11q-34 -4 -66 -3t-66 1q-20 0 -30 22q-10 24 -18 50l-16 52q-18 -6 -34 -6q-120 -4 -197 66t-119 186t-53 261t0 293t39 284t64 230q-14 -16 -26 -38q-8 -10 -19 -11t-20 3t-13 13t0 21q32 80 85 126t115 63t127 5t120 -49 t94 -97t51 -140q6 -40 9 -127t0 -198t-12 -234t-28 -239t-49 -212t-72 -150q10 -28 17 -53t15 -47q48 2 98 0zM446 66q4 0 6 2q-2 4 -3 10t-5 10q-14 44 -34 72t-72 26q-20 0 -22 22t14 30q34 16 62 13t49 -19t38 -43t29 -59q20 44 35 111t25 133t15 122t7 80q10 108 10 217 t6 219q2 42 5 95t-5 106t-30 98t-70 71q-138 48 -236 6q0 -4 -2 -6q-54 -110 -86 -255t-39 -298t12 -300t67 -261q14 -36 34 -73t47 -66t62 -47t81 -16z" />
<glyph unicode="R" horiz-adv-x="704" d="M596 58q16 -14 16 -33t-9 -32t-25 -18t-32 11q-38 34 -59 77t-31 91t-14 98t-6 96q-4 58 -10 119t-30 113q-32 58 -80 76q-74 -28 -150 -36h-6q4 -146 3 -291t-5 -291q0 -20 -14 -29t-29 -7t-27 13t-12 31q6 174 4 346t-7 345t-9 345t0 346q-10 6 -9 20t11 18q2 2 6 2 q6 10 20 10q90 34 178 18t160 -68t119 -133t53 -173q10 -144 -43 -251t-155 -171q32 -26 56 -65t36 -89t13 -119t7 -138t22 -131t58 -100zM178 702q-4 16 12 20q38 16 72 19t66 -5q54 24 96 66t69 95t37 113t-2 124q-16 88 -51 145t-88 90t-119 46t-140 13q6 -182 14 -362 t14 -362l4 -2h16z" />
<glyph unicode="S" horiz-adv-x="764" d="M40 284q-4 12 0 20t12 12t17 2t15 -12q18 -28 49 -68t69 -76t79 -63t81 -31t75 20t59 90q38 114 10 236t-98 216q-48 60 -99 120t-96 124t-77 134t-42 150q-12 90 19 159t87 114t128 64t144 7t135 -55t99 -123q8 -16 3 -30t-17 -22t-28 -7t-28 13q-22 26 -49 54t-57 49 t-65 31t-75 2q-46 -10 -87 -38t-68 -66t-39 -85t0 -97q28 -108 91 -193t129 -169q92 -118 146 -248t34 -282q-6 -44 -25 -88t-49 -80t-70 -58t-88 -22q-66 0 -117 25t-91 67t-68 95t-48 109z" />
<glyph unicode="T" horiz-adv-x="708" d="M622 1496q18 -2 27 -14t7 -26t-12 -25t-28 -11q-50 0 -99 1t-99 1v-2q14 -174 23 -350t7 -353t-19 -352t-55 -345q-4 -18 -19 -27t-31 -7t-27 12t-7 30q38 174 50 347t14 347t2 348t12 348q0 2 1 2t1 2q-70 0 -139 -5t-137 -21q-18 -4 -30 6t-15 25t5 29t26 18 q68 16 135 22t135 6t136 -3t136 -3z" />
<glyph unicode="U" horiz-adv-x="740" d="M632 1528q42 -98 53 -222t5 -255t-21 -258t-21 -229q-4 -40 -7 -97t-12 -119t-24 -124t-40 -112t-64 -83t-95 -39q-86 -10 -146 39t-101 137t-64 206t-33 248t-9 262t8 248t17 206t18 136q4 22 26 23t26 -21q12 -72 13 -149t-2 -154t-7 -154t-2 -151q0 -12 8 -90t24 -183 t40 -217t57 -194t74 -115t91 23q58 64 87 165t41 213t12 221t2 189t-3 160t-10 159t-9 159t0 160q0 14 9 22t20 10t22 -3t17 -17z" />
<glyph unicode="V" horiz-adv-x="860" d="M720 1456q6 18 20 22t27 -1t20 -18t1 -29q-64 -172 -108 -347t-80 -353t-71 -356t-79 -354q-4 -18 -17 -24t-27 -4t-27 11t-15 23q-84 364 -161 725t-135 729q-2 18 8 29t23 13t26 -5t17 -25q70 -318 135 -633t135 -635q38 154 70 309t66 310t75 309t97 304z" />
<glyph unicode="W" horiz-adv-x="1100" d="M958 1476q4 18 18 24t28 1t23 -19t5 -32q-40 -162 -70 -346t-60 -372t-62 -372t-74 -346q-4 -16 -17 -23t-27 -6t-27 10t-15 25q-22 144 -32 288l-20 288q-28 -152 -75 -297t-93 -295q-8 -26 -32 -26q-8 -2 -16 -2h-16q-16 0 -26 11t-12 23q-48 370 -109 736t-171 724 q-4 14 3 23t18 13t22 0t17 -18q90 -256 150 -514t98 -526q10 -74 20 -147t20 -147q48 144 86 285t58 291q2 20 15 28t29 6q0 2 -2 4q-8 78 -14 167t-21 177t-44 170t-81 146q-10 12 -5 28t21 18q56 6 97 -48t71 -147t50 -215t33 -253t20 -261t13 -238q30 142 55 292t48 300 t48 295t55 277z" />
<glyph unicode="X" horiz-adv-x="756" d="M628 1482q10 12 24 5t8 -21q-64 -182 -120 -368t-114 -374q14 -84 30 -169t36 -169t46 -166t64 -160q8 -20 0 -36t-23 -24t-33 -4t-28 24q-58 126 -91 257t-59 265q-44 -138 -95 -272t-111 -266q-8 -16 -24 -20t-29 1t-21 17t0 30q76 180 126 380t108 402 q-32 168 -79 328t-145 308q-10 14 -6 27t13 22t22 9t25 -12q90 -116 140 -244t82 -266q46 138 107 263t147 233z" />
<glyph unicode="Y" horiz-adv-x="798" d="M408 638q-4 -18 -18 -24q28 -68 34 -147t8 -151q0 -36 1 -78t-2 -84t-11 -83t-28 -73q-8 -14 -20 -16t-22 3t-18 16t-8 23q-4 74 11 149t15 151q-2 84 -12 163t-24 163q-2 14 6 22q-2 4 -3 5t-3 5q-40 94 -71 191t-60 196t-59 198t-68 195q-8 18 0 33t22 22t30 3t24 -22 q34 -80 70 -165t69 -172t59 -177t40 -178q64 180 157 350t181 336q10 20 29 9t13 -31q-36 -106 -84 -208l-96 -204t-91 -206t-71 -214z" />
<glyph unicode="Z" horiz-adv-x="654" d="M558 1514q24 0 31 -23t-3 -39q-60 -108 -97 -223t-65 -232t-50 -236t-51 -237t-68 -232t-101 -220q86 -10 174 -6t166 40q22 12 38 1t22 -28t-2 -35t-32 -22q-56 -10 -111 -19t-109 -13t-109 1t-111 25q-18 8 -19 27t11 29q-10 20 2 40q90 152 139 318t85 336t76 339 t116 329q-96 -4 -187 -14t-187 -18q-16 0 -25 8t-10 19t4 22t21 15q108 32 223 39t229 9z" />
<glyph unicode="[" horiz-adv-x="574" d="M90 1502q-12 22 -5 46t41 26q82 4 161 3t161 -1q26 0 40 -16t16 -36t-9 -36t-37 -16q-144 -4 -288 0q2 -216 4 -431t11 -431t27 -431t50 -429q8 4 14 4q32 4 62 7t62 7q26 2 40 -14t14 -36t-15 -37t-43 -13q-32 4 -62 6t-62 6q-12 4 -18 8q-14 -10 -35 -3t-25 29 q-96 436 -117 889t13 899z" />
<glyph unicode="\" horiz-adv-x="722" d="M38 1552q-4 14 2 24t16 14t20 0t16 -18q66 -142 112 -293t85 -304t74 -307t78 -306t98 -300t133 -286q14 -24 6 -44t-26 -29t-38 -4t-32 31q-100 212 -177 438t-140 458t-117 465t-110 461z" />
<glyph unicode="]" horiz-adv-x="520" d="M442 1502q36 -446 15 -899t-117 -889q-4 -22 -24 -29t-36 3q-8 -4 -20 -8q-28 -4 -59 -6t-61 -6q-28 -4 -43 13t-15 37t13 36t41 14q30 -4 61 -7t61 -7q6 0 14 -4q32 214 49 429t26 431t12 431t5 431q-144 -4 -288 0q-26 0 -37 16t-9 36t16 36t40 16q82 0 162 1t160 -3 q34 -2 41 -26t-7 -46z" />
<glyph unicode="^" horiz-adv-x="664" d="M618 860q10 -20 2 -36t-23 -23t-33 -3t-28 24q-58 122 -100 253t-98 255q-10 -78 -25 -165t-41 -165t-68 -139t-104 -87q-16 -8 -30 4t-8 30q12 40 31 77t39 73t38 73t28 79q24 90 38 182t30 184q6 36 38 41t50 -25q46 -74 80 -152t62 -159t57 -162t65 -159z" />
<glyph unicode="_" horiz-adv-x="1042" d="M106 -280q-24 -4 -38 10t-17 32t6 34t33 20q106 14 214 15t215 -5t215 -16t214 -18q24 -2 34 -17t8 -33t-15 -33t-37 -15q-104 -4 -208 5t-207 18t-207 12t-210 -9z" />
<glyph unicode="`" horiz-adv-x="416" d="M68 1610q-8 24 1 42t26 25t36 2t29 -27q20 -42 47 -82t59 -74q30 -34 58 -65t40 -77q6 -20 -11 -32t-33 -6q-46 14 -83 50t-65 74q-32 40 -59 81t-45 89z" />
<glyph unicode="a" horiz-adv-x="886" d="M780 158q14 10 28 8t22 -12t8 -24t-12 -26q-60 -58 -105 -65t-78 23t-57 91t-38 137q-10 -36 -27 -83t-41 -89t-58 -75t-76 -41q-78 -18 -136 25t-95 112t-54 149t-13 138q6 70 17 154t33 168t58 158t94 122q46 38 95 48t94 -4t81 -47t54 -79q14 -14 14 -32v-16 q6 -28 2 -68q0 -4 -1 -5t-1 -5q-2 -88 -2 -173t6 -171q2 -42 8 -114t24 -134t55 -90t101 20zM476 270q20 80 24 161t1 163t-4 163t11 163q0 4 1 5t1 3q-20 30 -45 52t-54 31t-59 2t-60 -37q-36 -40 -62 -88t-42 -100q-28 -90 -48 -182t-24 -186q-2 -34 4 -73t18 -77t28 -73 t38 -61q44 -54 86 -57t79 24t65 73t42 94z" />
<glyph unicode="b" horiz-adv-x="690" d="M380 984q62 -28 111 -78t81 -113t47 -133t13 -136q-2 -62 -18 -133t-46 -138t-71 -125t-95 -96q-56 -40 -100 -38t-77 31t-54 76t-31 99v-224q0 -20 -13 -29t-29 -8t-29 12t-13 33q2 396 -1 787t15 785q0 12 9 18t19 7t18 -5t8 -18q10 -164 13 -329t5 -329q38 58 98 88 t140 -4zM558 530q0 50 -10 106t-32 109t-56 96t-82 71q-46 26 -83 21t-66 -28t-51 -60t-36 -75v-255t-2 -255q8 14 22 21t29 6t27 -10t16 -29q2 -12 6 -41t12 -58t22 -50t36 -17q34 6 63 36t49 58q52 76 93 168t43 186z" />
<glyph unicode="c" horiz-adv-x="744" d="M650 926q-2 -12 -14 -18t-22 2q-24 18 -45 39t-45 36t-51 20t-61 -11q-46 -24 -86 -54t-70 -70q-54 -70 -78 -143t-24 -163q0 -88 12 -186t58 -178q14 -24 37 -47t51 -39t60 -24t62 0q74 16 99 72t29 122q0 22 14 31t31 8t30 -13t13 -34q-4 -70 -33 -132t-77 -101 t-111 -47t-137 30q-70 36 -114 92t-68 123t-33 142t-9 149q0 152 55 286t191 218q44 26 103 39t111 4t88 -45t34 -108z" />
<glyph unicode="d" horiz-adv-x="670" d="M610 1568q18 -396 14 -791t0 -791q0 -22 -13 -33t-30 -13t-30 7t-13 31v224q-10 -52 -31 -100t-54 -76t-78 -30t-101 38q-52 38 -94 96t-71 125t-46 138t-19 135q-4 66 11 137t47 134t80 114t112 79q84 34 144 5t100 -93q2 168 4 333t10 333q2 12 11 18t19 5t19 -7t9 -18 zM444 250q2 20 15 30t28 11t30 -7t21 -22v514q-16 40 -38 77t-51 61t-67 27t-86 -23t-81 -70t-55 -97t-31 -109t-9 -108q2 -94 42 -187t94 -169q20 -28 49 -58t63 -36q22 -4 36 17t22 50t12 58t6 41z" />
<glyph unicode="e" horiz-adv-x="716" d="M182 534q-20 10 -10 30t26 20q32 0 77 -10t92 -16t90 -3t69 29q46 44 60 105t0 119q-18 78 -70 125t-112 56t-117 -25t-89 -118q-24 -64 -38 -137t-15 -150t11 -151t40 -136q28 -58 72 -110t108 -72q54 -16 86 -6t51 36t29 65t18 81q2 16 12 24t22 9t22 -6t14 -23 q16 -76 -1 -131t-54 -88t-88 -46t-106 -4t-108 40t-91 83q-60 82 -93 197t-35 236t29 234t101 193q68 78 150 93t156 -16t126 -101t58 -164q8 -112 -33 -186t-112 -107t-163 -25t-184 56z" />
<glyph unicode="f" horiz-adv-x="652" d="M312 1530q34 44 72 52t74 -9t66 -54t48 -82t20 -93t-18 -88q-4 -10 -14 -14t-19 -3t-16 9t-3 20q6 28 -5 61t-30 62t-43 50t-46 24t-39 -16t-21 -69q-6 -48 -6 -100q-2 -58 -2 -117t-4 -119q0 -8 -1 -16t-1 -18q44 -4 87 -3t89 7q20 2 32 -9t15 -26t-5 -30t-28 -17 q-42 -6 -92 -10t-102 0q-10 -224 -18 -446t-10 -446q0 -18 -11 -25t-25 -6t-25 11t-11 26q2 224 17 445t23 445q-54 6 -103 20t-87 42q-22 14 -12 38t34 22q44 -4 85 -15t87 -17v150q0 38 -2 87t0 100t13 97t37 80z" />
<glyph unicode="g" horiz-adv-x="796" d="M684 1126q18 0 27 -12t9 -27t-8 -28t-26 -15q-92 -12 -164 -66q44 -44 68 -107t31 -132t-1 -136t-26 -121q-18 -48 -45 -92t-62 -78t-76 -54t-85 -22q-4 -22 -20 -28q-88 -26 -120 -100q44 -24 98 -60t104 -78t90 -90t54 -97t-5 -99t-83 -94q-40 -28 -89 -41t-97 -9 t-92 27t-72 69q-52 84 -24 160t112 120q20 10 37 2t25 -24t4 -35t-24 -29q-48 -26 -58 -65t7 -73t55 -55t88 -9q36 8 68 25t50 42t18 56t-28 67q-62 78 -143 133t-167 107q-10 6 -13 19t1 25q34 112 130 156q-40 18 -78 58q-54 54 -78 127t-23 151t25 155t64 137 q34 52 80 94t110 46q8 0 16 -1t18 -1q18 22 48 14q10 -2 21 -6t21 -8q0 2 2 4q40 44 103 73t123 25zM208 388q56 -56 110 -54t99 42t77 106t44 141t0 147t-56 124q-14 -12 -28 -6q-20 6 -38 19t-37 23t-39 13t-44 -11q-38 -22 -65 -61t-43 -81q-18 -44 -31 -98t-15 -109 t13 -106t53 -89z" />
<glyph unicode="h" horiz-adv-x="822" d="M596 1082q72 -58 104 -137t39 -170t-4 -189t-26 -195t-28 -188t-7 -165q2 -22 -12 -35t-30 -16t-31 5t-15 30q-4 98 9 196t28 196t23 196t-4 196q-10 74 -49 136t-91 91t-109 10t-103 -107q-22 -40 -37 -81t-29 -85l-24 -356t-4 -354q0 -22 -13 -36t-30 -17t-32 6t-17 31 v14q0 14 -2 27t-6 25q-2 14 6 28q0 116 7 232t15 234q-4 12 -4 16q0 52 16 126q2 14 2 26t2 26q4 86 12 184t7 197t-17 193t-58 172q-10 16 6 29t30 1q56 -42 82 -113t33 -152t4 -161t-5 -140v-10q32 48 71 85t84 52t97 4t110 -57z" />
<glyph unicode="i" horiz-adv-x="316" d="M112 1050q2 16 13 24t23 9t23 -6t13 -23q10 -150 19 -300t9 -300q0 -54 1 -111t-4 -113t-17 -110t-38 -104q-6 -10 -16 -12t-20 0t-18 9t-8 17q-4 62 0 124t9 124t10 125t5 125q-4 132 -8 262t4 260zM144 1412q16 -4 23 -15t6 -23t-10 -21t-25 -9q-20 0 -34 20 q-4 10 -2 22t12 18q22 18 56 22t56 -12t23 -42t3 -44q0 -12 -7 -21t-15 -13q-28 -14 -60 -20t-58 16q-16 12 -31 33t-25 37q-14 22 3 41t39 19q22 -2 37 -17t25 -31q4 -4 5 -9t5 -9q-8 2 -8 3t6 1l12 4t14 6q-6 -10 -12 -17t-12 -15q2 10 3 22t1 22l8 -16l8 -16q-8 4 -22 4 t-18 -4q4 12 8 23t8 23q0 -2 2 -2q-12 8 -28 20h4z" />
<glyph unicode="j" horiz-adv-x="618" d="M90 -208q10 6 21 4t15 -14q12 -22 16 -48t11 -49t22 -42t47 -29q64 -18 105 15t65 88t34 117t12 102q16 276 18 551t-18 549q-2 18 9 29t25 14t27 -5t13 -26q14 -278 22 -558t-22 -560q-4 -42 -13 -102t-28 -118t-52 -105t-85 -63q-48 -16 -113 5t-114 60t-62 90t45 95z M458 1354q16 -4 23 -14t6 -22t-10 -21t-25 -9q-12 0 -19 5t-13 15t-3 22t11 18q20 16 54 20t56 -12t24 -41t2 -43q2 -10 -6 -19t-18 -13q-26 -16 -57 -22t-57 16q-14 16 -29 35t-25 35q-14 22 3 40t37 18q22 -2 37 -15t25 -33q4 -4 5 -9t5 -7q-8 2 -8 3t6 1q16 4 24 8 q-4 -8 -10 -15t-12 -15q2 10 3 21t1 25q4 -10 8 -18l8 -16q-8 4 -21 4t-19 -4q4 12 9 24t9 22v-2q-8 6 -15 11t-13 9z" />
<glyph unicode="k" horiz-adv-x="700" d="M628 1036q-26 -100 -91 -193t-127 -175q-16 -24 -34 -45t-34 -43q36 -72 60 -152t54 -154q12 -28 28 -57t31 -60t24 -62t9 -61q-2 -16 -18 -24t-28 2q-30 20 -51 57t-38 79t-30 84t-25 74q-18 48 -38 101t-34 107q-30 -36 -61 -71t-61 -71q0 -86 -4 -170t-14 -170 q-4 -20 -18 -29t-30 -7t-28 13t-10 31q8 76 11 149t3 147q-12 12 -14 29t14 33q-2 146 -8 293t-4 293t17 290t55 286q6 18 18 23t25 0t21 -17t4 -30q-34 -130 -45 -260t-11 -262t6 -264t10 -264q62 66 116 134l4 4q24 32 47 62t45 62q56 76 104 158t110 152q12 16 28 7 t12 -29z" />
<glyph unicode="l" horiz-adv-x="244" d="M110 1554q0 12 8 18t19 7t20 -5t11 -18q22 -190 14 -378t-19 -376t-12 -376t33 -376q4 -22 -8 -35t-29 -16t-32 5t-19 30q-36 188 -38 378t10 380t28 381t14 381z" />
<glyph unicode="m" horiz-adv-x="1194" d="M780 1092q114 12 182 -39t105 -141t47 -205t9 -231t-9 -220t-8 -170q0 -22 -15 -32t-32 -9t-32 14t-15 37q2 132 7 263t-5 263q-2 30 -10 82t-23 108t-38 107t-55 79t-75 23t-97 -59q-40 -40 -65 -89t-41 -107q18 -90 21 -184t-1 -190t-11 -189t-9 -179q0 -20 -13 -29 t-29 -8t-30 13t-14 32q0 58 -9 150t-14 198t-1 218t26 208q-6 40 -18 76t-34 58q-48 50 -88 59t-73 -7t-61 -53t-48 -81q10 -66 5 -135t-7 -115q-2 -66 -2 -144t-5 -157t-19 -155t-42 -138q-6 -10 -17 -16t-23 -6t-21 7t-11 23q-6 60 0 122t16 125t20 125t14 122q2 40 4 81 t4 81q-10 2 -19 9t-9 19q2 52 24 112q0 4 -1 8t-1 8q-4 40 -16 85t-4 85q4 14 15 21t27 -3q18 -12 30 -32t20 -42q36 50 82 87t95 44t96 -20t87 -105q4 -8 9 -16t9 -16q30 70 82 115t134 55z" />
<glyph unicode="n" horiz-adv-x="704" d="M636 632q10 -162 -1 -322t-13 -322q0 -22 -14 -31t-31 -8t-31 14t-14 35q2 104 15 222t20 237t-3 234t-54 215q-30 64 -60 82t-61 3t-59 -54t-53 -90t-45 -105t-32 -98q4 -144 -4 -286t-16 -280q-4 -48 -18 -67t-30 -16t-28 24t-12 55v12v44t2 44v205t10 205 q2 122 -3 243t-23 243q-4 18 6 28t23 12t26 -4t17 -24q24 -100 36 -200q20 42 49 84t63 70t75 39t89 -7q60 -22 93 -74t51 -115t23 -129t7 -118z" />
<glyph unicode="o" d="M754 780q18 -84 23 -188t-12 -206t-62 -191t-129 -141q-96 -60 -177 -58t-144 48t-108 126t-68 177t-24 202t23 198t74 166t128 109q76 58 153 60t142 -36t114 -108t67 -158zM550 134q52 50 83 120t45 148t11 157t-17 145q-6 32 -15 67t-23 70t-34 64t-48 49 q-36 26 -70 30t-67 -5t-66 -26t-67 -33q-14 -6 -26 -2q-46 -48 -72 -112t-37 -133t-8 -139t15 -132q8 -42 26 -93t45 -98t61 -84t76 -53t89 -4t99 64z" />
<glyph unicode="p" horiz-adv-x="788" d="M734 522q4 -70 -6 -145t-36 -145t-69 -130t-105 -100q-46 -30 -96 -35t-97 11t-87 48t-66 76q2 -132 -4 -264t-22 -266q-2 -22 -17 -30t-31 -5t-28 17t-6 36q36 150 45 302t4 304t-15 304t-14 304q-16 12 -21 29t5 35q8 16 14 22v120q2 18 21 19t21 -17q2 -16 2 -30 t4 -30q34 40 76 72t89 46t97 6t100 -46q118 -90 174 -228t68 -280zM562 154q58 90 82 201t8 219q-8 48 -21 102t-34 105t-52 96t-73 77q-54 40 -102 41t-89 -23t-76 -66t-63 -88l-4 -4q10 -150 19 -297t13 -295q16 0 24 -6q20 -18 39 -42t38 -47t41 -42t50 -27 q64 -20 115 12t85 84z" />
<glyph unicode="q" horiz-adv-x="690" d="M580 -288q16 8 29 1t19 -19t2 -26t-18 -22q-62 -36 -94 -96q-8 -14 -21 -15t-25 5t-18 18t0 24q10 20 22 32q-4 6 -7 12t-3 14q2 120 5 240t7 240q-26 -42 -71 -57t-103 25q-52 32 -96 78t-77 100t-52 114t-21 122q-2 66 8 147t34 159t60 144t86 100t114 27t142 -73v12 q0 12 9 18t20 7t21 -5t10 -18q14 -164 15 -330t-4 -332t-12 -332t-9 -332q8 4 15 9t13 9zM438 284q4 18 19 24t27 -4q4 154 9 306t7 308l-8 4t-8 6q-64 64 -115 76t-90 -11t-67 -73t-46 -111t-27 -125t-9 -114q-4 -90 20 -167t82 -147q24 -28 55 -61t69 -45q30 -12 45 0 t22 36t9 52t6 46z" />
<glyph unicode="r" horiz-adv-x="626" d="M544 1042q18 -10 21 -28t-5 -33t-25 -24t-35 -1q-52 22 -91 15t-69 -37t-51 -79t-35 -109q8 -178 -1 -354t-9 -356q0 -20 -14 -30t-30 -10t-31 10t-17 28q-10 46 -18 132t-8 190t9 215t33 211q-2 42 -7 80t-13 66t-19 42t-27 6q-18 -8 -34 9t-2 35q30 38 54 43t44 -10 t34 -46t26 -67q24 48 55 83t70 50t88 8t107 -39z" />
<glyph unicode="s" horiz-adv-x="608" d="M534 936q8 -20 -9 -31t-33 5q-58 54 -115 68t-104 -1t-78 -53t-38 -87t15 -104t82 -103q42 -34 85 -65t82 -66t71 -77t50 -94q26 -68 14 -127t-49 -103t-91 -70t-114 -31t-119 16t-103 71q-16 18 -13 36t17 29t33 12t35 -15q38 -42 82 -55t86 -3t76 39t52 67t14 83 t-40 89q-42 52 -92 91t-100 79q-36 28 -70 62t-59 73t-36 84t-1 95q16 80 79 140t139 80t147 -9t105 -125z" />
<glyph unicode="t" horiz-adv-x="618" d="M568 320q20 -40 17 -89t-20 -94t-48 -83t-66 -55t-74 -9t-73 54q-26 34 -37 81t-13 98t0 100t2 89q2 162 -7 324t-19 324q-38 -8 -73 -17t-73 -13q-12 -2 -22 5t-14 18t-1 22t13 19q34 22 76 35t90 21q-6 100 -11 198t-5 196q0 18 12 28t25 12t25 -7t12 -27q0 -98 2 -195 t4 -195q58 4 114 0t104 -14q20 -4 27 -18t4 -29t-15 -26t-32 -9q-50 10 -99 10t-99 -4q6 -138 11 -271t13 -269q4 -60 4 -119t2 -117q0 -50 6 -100q4 -50 21 -69t39 -16t46 24t43 50t30 63t5 62q-4 24 20 27t34 -15z" />
<glyph unicode="u" horiz-adv-x="772" d="M692 70q18 -12 19 -30t-9 -31t-26 -18t-34 7q-46 30 -76 74t-46 96q-28 -74 -81 -127t-139 -43q-94 12 -148 78t-81 164t-30 214t4 230t19 212t18 158q0 12 10 19t20 8t20 -5t10 -20q4 -42 -1 -130t-9 -195t-1 -221t20 -207t54 -154t103 -63q78 -2 123 48t67 132 q-4 42 -6 83t-2 81q0 18 11 26t25 6q6 88 4 182t-4 179t0 154t14 111q4 14 14 19t22 3t21 -9t13 -19q24 -78 26 -173t-8 -194t-27 -194t-31 -173q6 -78 31 -155t91 -123z" />
<glyph unicode="v" horiz-adv-x="806" d="M668 1052q6 22 23 28t34 0t28 -23t5 -39q-36 -128 -70 -257t-74 -256t-90 -250t-118 -239q-14 -22 -42 -19t-38 25q-52 120 -82 245t-54 251t-50 252t-66 248q-6 18 1 32t20 20t27 3t22 -21q48 -108 76 -221t49 -227t44 -229t61 -225q54 106 95 218t75 226t63 229t61 229 z" />
<glyph unicode="w" horiz-adv-x="1090" d="M952 1054q6 20 21 25t30 -1t24 -20t3 -34q-38 -124 -63 -252t-49 -256t-53 -255t-75 -249q-6 -16 -18 -21t-25 -2t-23 14t-10 27q-2 72 -17 140t-36 134t-44 131t-43 131q-34 -134 -72 -267t-78 -265q-4 -16 -15 -21t-23 -4t-23 10t-13 21q-30 128 -54 262t-55 266 t-73 259t-104 245q-10 20 8 30t32 -4q42 -40 72 -95t51 -116t36 -123t29 -116q28 -108 52 -217t48 -219q38 142 75 281t65 283q0 6 -1 13t-1 15q0 22 20 26q10 10 25 13t27 -2t19 -15t3 -28q-4 -24 -9 -48t-11 -50q14 -66 35 -129t44 -126t45 -126t38 -127q30 108 50 216 t39 216t41 216t56 214z" />
<glyph unicode="x" horiz-adv-x="796" d="M712 54q8 -16 3 -28t-17 -18t-27 -3t-23 17q-70 120 -141 236t-141 236q-52 -116 -88 -236t-90 -234q-10 -22 -27 -25t-32 5t-21 24t6 36q38 54 64 116t47 128t42 131t51 125q2 2 2 3t2 3q-68 112 -133 226t-127 232q-6 12 -2 22t13 15t21 2t18 -15q58 -106 119 -210 t125 -208q60 108 127 213t111 225q8 20 32 15t20 -29q-16 -70 -43 -133t-62 -123t-72 -119t-69 -121q78 -126 157 -253t155 -255z" />
<glyph unicode="y" horiz-adv-x="888" d="M778 1098q6 20 28 15t20 -25q-18 -250 -78 -506t-146 -492q-30 -82 -68 -172t-90 -170t-123 -138t-169 -74q-16 -4 -33 7t-21 29q-4 56 -11 110t-11 110q0 22 13 36t30 17t32 -6t19 -31q4 -34 1 -74t2 -67t23 -31t64 36q90 78 146 182q16 32 31 63t31 65q-14 0 -20 18 q-50 118 -103 247t-101 263t-85 268t-53 260q-2 20 8 31t24 14t27 -5t17 -26q50 -248 118 -489t194 -459q8 -14 12 -32q22 58 42 117t36 119q28 98 49 198l42 200t45 198t58 194z" />
<glyph unicode="z" horiz-adv-x="822" d="M716 74q18 0 27 -12t7 -25t-12 -25t-28 -12q-130 -2 -258 0t-256 2q-14 0 -25 12t-7 26q26 128 75 248t104 238t107 236t88 244q-50 -4 -126 -11t-149 -5t-128 17t-61 55q-2 10 4 17t16 7q124 0 247 -3t247 -3q18 0 26 -16t4 -32q-56 -178 -136 -344t-148 -338 q-20 -48 -39 -95t-31 -97q-26 -122 86 -86q94 2 185 3t181 -1z" />
<glyph unicode="{" horiz-adv-x="546" d="M460 1590q12 0 18 -7t6 -16t-6 -17t-16 -10q-84 -22 -122 -80t-52 -135t-13 -166t-4 -175t-25 -161t-74 -121q2 2 10 -17t17 -49t19 -66t18 -67t14 -53t6 -24q2 -84 -5 -178t0 -185t42 -171t123 -136q20 -12 21 -31t-10 -34t-30 -21t-39 6q-92 58 -132 134t-52 161 t-7 178t3 184t-23 177t-83 160q-12 16 -11 34t17 32q56 48 79 130t32 177t16 192t32 176t77 129t154 50z" />
<glyph unicode="|" horiz-adv-x="250" d="M118 1566q0 14 8 22t19 9t20 -6t9 -21q18 -156 18 -313t-10 -315t-23 -315t-18 -315t3 -315t40 -313q6 -28 -8 -45t-34 -20t-38 8t-20 39q-32 234 -36 472t6 478t29 478t35 472z" />
<glyph unicode="}" horiz-adv-x="516" d="M58 1590q100 0 153 -50t78 -129t32 -176t17 -192t33 -177t79 -130q14 -14 17 -32t-11 -34q-64 -74 -84 -160t-22 -177t3 -184t-7 -178t-52 -161t-132 -134q-22 -12 -41 -6t-29 21t-9 34t21 31q86 56 122 136t43 171t0 185t-5 178q0 2 5 24t14 53t19 67t19 66t16 49t9 17 q-54 46 -73 121t-23 161t-3 175t-13 166t-53 135t-123 80q-10 2 -16 10t-6 17t5 16t17 7z" />
<glyph unicode="~" horiz-adv-x="890" d="M184 722q-18 -16 -43 -18t-47 6t-34 24t0 36q38 70 130 85t198 -21q46 -16 92 -36t98 -28q34 -6 58 3t44 23t40 29t44 23q22 8 47 -1t29 -27q6 -38 -20 -69t-71 -50t-102 -24t-113 9q-52 12 -98 30t-94 34q-32 10 -54 14t-39 0t-32 -14t-33 -28z" />
<glyph unicode="&#xa1;" horiz-adv-x="290" d="M166 1070q-6 22 -27 24t-27 -22q-20 -78 -30 -163t-15 -172t-7 -174t-2 -169q0 -44 -1 -107t9 -126t37 -114t81 -71q24 -8 42 4t16 38q-6 144 -24 285t-40 285q-6 28 -32 32q0 8 2 10q2 52 9 108t13 113t6 113t-10 106zM156 124q-18 48 -24 112t-2 132q8 -60 15 -121 t11 -123zM180 1350q18 12 28 22q28 32 7 62t-47 50q-14 10 -31 8t-29 -13t-15 -26t9 -31q0 -2 1 -3t1 -3q-14 -10 -19 -28t1 -34q4 -12 14 -19t20 -5q16 0 36 10q16 -4 22 6q2 2 2 4z" />
<glyph unicode="&#xa2;" horiz-adv-x="744" d="M650 926q-2 -12 -14 -18t-22 2q-24 18 -45 39t-45 36t-51 20t-61 -11q-46 -24 -86 -54t-70 -70q-54 -70 -78 -143t-24 -163q0 -88 12 -186t58 -178q14 -24 37 -47t51 -39t60 -24t62 0q74 16 99 72t29 122q0 22 14 31t31 8t30 -13t13 -34q-4 -70 -33 -132t-77 -101 t-111 -47t-137 30q-70 36 -114 92t-68 123t-33 142t-9 149q0 152 55 286t191 218q44 26 103 39t111 4t88 -45t34 -108z" />
<glyph unicode="&#xa3;" horiz-adv-x="984" d="M846 300q4 20 18 29t29 7t28 -14t13 -32q4 -128 -46 -191t-128 -81t-172 -2t-180 46q-46 -44 -114 -64t-170 -10q-28 0 -38 26q-18 44 -26 90t2 79t43 49t97 4q46 -10 93 -28t97 -36q28 64 26 144t-12 146t-34 164q-16 0 -22 2q-36 2 -74 3t-76 3t-75 7t-69 19 q-20 8 -19 24t17 26q30 18 62 25t66 7t69 -4t69 -6q8 -2 28 -2q-24 98 -45 208t-30 210t3 183t55 129t123 46t212 -64q10 -4 17 -12t9 -20q4 -88 -13 -152t-71 -132q-8 -10 -19 -11t-19 5t-11 16t5 22q58 78 68 131t-10 84t-60 43t-81 12t-75 -12t-40 -28q-20 -58 -16 -119 t14 -119q20 -108 45 -214t47 -214q40 -2 82 0t82 10q22 4 36 -8t17 -29t-6 -34t-31 -23q-40 -10 -80 -13t-80 -3q4 -18 7 -35t5 -35q18 -114 16 -220t-40 -188q64 -24 125 -37t112 -1t89 57t56 137zM174 74q32 -2 66 -3t66 13l8 4t8 6q-42 18 -87 36t-85 16q-10 0 -7 -11 t9 -25t10 -20z" />
<glyph unicode="&#xa4;" horiz-adv-x="1254" d="M1096 968q-26 -32 -56 -65t-70 -45q38 -56 54 -136q14 -70 4 -143t-42 -139q-14 -24 -28 -47t-32 -43q34 -16 60 -46t48 -58q28 -38 51 -75t39 -81q8 -22 0 -38t-23 -23t-31 -3t-26 26q-34 78 -92 142q-22 28 -43 51t-33 55q-24 -22 -52 -37t-56 -27q-88 -38 -170 -38 q-118 0 -206 76q-8 4 -14 10l-10 10q-12 -34 -35 -59t-45 -53q-28 -32 -51 -68t-41 -76q-10 -20 -26 -24t-31 3t-23 23t0 38q16 44 39 81t51 75q26 32 55 64t67 44q-16 26 -32 55t-26 59q-24 66 -31 137t3 137q10 64 32 112q-34 16 -62 47t-50 59q-28 38 -51 75t-39 81 q-8 20 0 37t23 24t31 2t26 -25q16 -38 39 -74t53 -68q18 -24 36 -45t34 -47q8 10 15 18t17 16q-8 8 -8 16q2 4 5 9t13 9q150 52 270 52q170 0 276 -90q18 -14 32 -32q12 34 35 60t45 54q28 32 52 68t40 76q8 20 25 24t32 -3t23 -24t0 -37q-16 -42 -39 -80t-51 -76zM908 508 q24 74 27 146t-15 132q-10 32 -30 64t-53 59t-83 44t-122 17q-82 0 -190 -28q-146 -136 -88 -416q4 -24 24 -72t54 -94q28 -40 76 -78t112 -38q70 0 146 52q46 30 82 86t60 126z" />
<glyph unicode="&#xa5;" horiz-adv-x="798" d="M408 638q-4 -18 -18 -24q28 -68 34 -147t8 -151q0 -36 1 -78t-2 -84t-11 -83t-28 -73q-8 -14 -20 -16t-22 3t-18 16t-8 23q-4 74 11 149t15 151q-2 84 -12 163t-24 163q-2 14 6 22q-2 4 -3 5t-3 5q-40 94 -71 191t-60 196t-59 198t-68 195q-8 18 0 33t22 22t30 3t24 -22 q34 -80 70 -165t69 -172t59 -177t40 -178q64 180 157 350t181 336q10 20 29 9t13 -31q-36 -106 -84 -208l-96 -204t-91 -206t-71 -214zM712 860q-80 -2 -162 -11t-165 -16t-165 -9t-162 10q-22 4 -23 24t21 24q162 30 331 44t333 14q20 0 28 -12t7 -27t-12 -28t-31 -13z M700 588q20 -2 31 -16t12 -31t-9 -32t-30 -15q-70 -4 -140 0t-139 8t-139 5t-140 -11q-16 -4 -30 4q-10 -8 -24 1t-10 25q4 14 5 18t5 -10q-4 22 7 37t31 19q66 16 138 20t145 0t146 -11t141 -11z" />
<glyph unicode="&#xa6;" horiz-adv-x="218" d="M158 842q0 -32 -11 -47t-25 -15t-27 15t-17 41q-30 168 -28 354t18 358q4 40 22 57t36 14t31 -25t9 -62q-20 -176 -16 -344t8 -346zM162 -94q0 -32 -11 -47t-25 -15t-27 15t-17 41q-28 168 -27 355t17 357q4 40 22 57t36 14t31 -25t9 -62q-20 -176 -16 -344t8 -346z" />
<glyph unicode="&#xa7;" horiz-adv-x="740" d="M690 702q10 -52 3 -104t-33 -98q-26 -44 -58 -74q2 -4 2 -6t2 -4q24 -78 12 -145t-48 -116t-90 -79t-113 -34t-117 19t-102 81q-16 18 -13 38t17 33t33 14t35 -19q46 -60 103 -66t105 23t77 84t19 119q-10 -4 -21 -8t-21 -8q-70 -26 -138 -26q-96 0 -170 54 q-30 24 -56 58t-42 74q-38 96 -22 192q16 98 80 150q-4 4 -2 10q0 6 6 12q-10 32 -12 63t6 67q10 60 43 111t77 86t96 51t100 6t88 -48t62 -110q8 -22 -10 -35t-32 5q-68 74 -134 83t-115 -22t-72 -94t-5 -133q68 14 138 14q66 0 122 -15t100 -49q78 -58 100 -154zM502 432 q32 32 60 82q28 52 36 113t-10 115q-42 122 -216 122q-28 0 -59 -4t-65 -10q-6 -2 -22 -6q-30 -24 -48 -58q-46 -82 -16 -220q4 -18 20 -51t41 -64t60 -54t79 -23q28 0 55 10t55 26q8 4 15 10t15 12z" />
<glyph unicode="&#xa8;" horiz-adv-x="558" d="M506 1454q8 -16 8 -42q10 -24 -12 -42q-8 -10 -22 -14q-4 -2 -16 -7t-4 1q-14 -10 -33 -7t-25 21q-16 40 0 81t56 61q18 6 32 -2t18 -26q4 -16 -2 -24zM158 1454q8 -16 8 -42q10 -24 -12 -42q-8 -10 -22 -14q-6 -2 -17 -7t-3 1q-14 -10 -33 -7t-25 21q-16 40 0 81t56 61 q18 6 32 -2t18 -26q4 -16 -2 -24z" />
<glyph unicode="&#xa9;" horiz-adv-x="1174" d="M1116 808q18 -96 5 -193t-57 -187t-116 -162q-38 -34 -81 -63t-95 -49q-118 -50 -228 -50q-78 0 -148 26t-128 74q-104 92 -162 246q-32 90 -41 184t5 184q14 92 51 167t95 123q-16 8 -16 20q0 10 22 18q98 34 189 51t175 17q118 0 208 -32q92 -30 158 -88 q130 -108 164 -286zM1068 950q-60 106 -156 174q48 -34 88 -77t68 -97zM778 224q60 40 111 117t83 173q34 102 38 200t-20 180q-14 44 -41 90t-74 83t-116 60t-167 23q-118 0 -262 -36q-204 -188 -124 -574q8 -34 35 -99t73 -129q20 -28 46 -56t59 -51t73 -38t86 -15 q48 0 98 17t102 55zM910 1124h2h-2zM940 260q46 42 79 90t57 102q-24 -54 -57 -102t-79 -90zM638 1098q56 0 90 -24t40 -66q0 -14 -6 -20q-4 -4 -8 -7t-10 -3q-12 0 -16 10q-46 44 -98 44q-26 0 -50 -13t-42 -35t-29 -52t-11 -64v-37t2 -41v-96q0 -16 -1 -31t-1 -31 q-4 -46 -4 -92t4 -92v-12q4 -28 10 -60t28 -52v-2q32 -38 54 -38t35 28t23 56q0 18 8 28q12 12 28 12q30 0 34 -30q16 -86 -26 -136q-30 -34 -76 -34q-30 0 -74 20q-90 42 -114 162q-10 52 -9 107t5 101q2 10 2 18v18q2 22 1 46t-3 52q-2 42 -3 89t4 90t20 79t45 60 q26 22 67 35t81 13z" />
<glyph unicode="&#xaa;" horiz-adv-x="670" d="M620 522q6 -22 -10 -38q-50 -52 -92 -52q-50 4 -78 58q-10 16 -18 39t-14 51q-10 -26 -23 -54t-30 -52t-39 -42t-50 -24q-10 -2 -30 -2q-60 0 -102 48q-24 24 -41 58t-28 70t-16 72t-3 64q4 52 12 113t24 120t42 111t66 86q50 40 102 40q46 0 86 -27t58 -71v-2 q4 -4 7 -12t3 -18v-8q2 -24 0 -50v-8q-2 -62 -2 -121t4 -119l2 -8q0 -28 3 -67t11 -77q24 -84 60 -84q14 0 42 18q10 8 24 8q20 0 30 -20zM364 862q-2 52 -2 102t6 100v2q0 2 2 4q-40 52 -82 52q-28 0 -52 -24q-44 -44 -72 -130q-22 -72 -35 -136t-17 -122q-2 -46 16 -102 t46 -92q30 -34 62 -34q34 0 66 40t46 88q16 62 17 125t-1 127z" />
<glyph unicode="&#xab;" horiz-adv-x="914" d="M498 964q40 44 80 85t80 81t79 85t79 99q12 16 21 2t14 -41t3 -58t-12 -49q-84 -132 -176 -229t-186 -187q96 -34 186 -124q20 -20 51 -46t60 -65t52 -91t31 -122q4 -32 -4 -58t-20 -20q-22 12 -43 41t-42 65t-43 71t-42 57q-64 72 -134 115t-140 51q-10 0 -19 16t-9 48 q0 66 14 110t35 74t44 50t41 40zM160 958q40 44 80 85t80 81t79 85t79 99q12 16 21 2t14 -41t3 -58t-12 -49q-84 -132 -176 -229t-186 -187q46 -18 93 -48t93 -76q22 -20 52 -46t59 -65t52 -91t31 -124q4 -30 -4 -57t-20 -19q-22 12 -43 41t-42 65t-42 71t-43 57 q-64 70 -134 114t-140 52q-10 0 -19 16t-9 48q0 66 14 110t35 74t44 50t41 40z" />
<glyph unicode="&#xac;" horiz-adv-x="992" d="M74 964q-16 4 -17 19t15 19q192 34 404 25t404 -43q30 -10 30 -38q2 -42 11 -92t16 -101t8 -100t-13 -87q-6 -16 -21 -17t-23 15q-14 28 -18 66t-4 78t-1 79t-10 70t-29 52t-60 25q-86 10 -173 10h-174t-174 2t-171 18z" />
<glyph unicode="&#xad;" horiz-adv-x="516" d="M420 736q20 -4 28 -18t6 -29t-13 -26t-29 -7q-84 16 -163 13t-163 -5q-16 0 -22 8t-6 20t7 23t19 15q78 22 167 21t169 -15z" />
<glyph unicode="&#xae;" horiz-adv-x="1130" d="M202 1094q188 66 336 68t256 -41t177 -122t100 -176t26 -204t-46 -205t-117 -178t-186 -124q-124 -50 -228 -48t-185 43t-140 113t-95 160t-49 185t-1 189t49 171t99 131q-14 10 -16 20t20 18zM754 180q56 38 103 107t78 152t43 173t-2 174t-58 154t-124 112t-199 48 t-285 -38q-64 -60 -96 -131t-42 -146t-4 -150t18 -139q6 -28 26 -80t54 -107t81 -105t108 -76t136 -18t163 70zM718 258q18 -14 12 -38q-14 -26 -32 -26q-8 0 -20 8q-40 36 -49 86t-13 98v20q-2 6 -2 18q-2 24 -5 52t-15 50q-8 20 -32 34q-18 -8 -36 -11t-38 -7 q2 -92 2 -164t-2 -138q0 -30 -32 -30q-16 0 -24 12q-10 10 -10 22q4 98 3 196t-5 194q-2 88 -4 174t0 172q-4 12 -4 16q0 14 12 18l2 2q8 4 14 6q32 12 68 12q84 0 148 -64q62 -62 68 -148q12 -150 -100 -230q30 -26 44 -78q4 -18 6 -41t2 -49q4 -46 9 -94t33 -72zM566 622 q54 28 82 84t18 120q-12 76 -58 110t-136 36q2 -22 3 -45t1 -49q4 -64 6 -131t4 -133q2 0 3 1t3 1q36 14 74 6z" />
<glyph unicode="&#xaf;" horiz-adv-x="730" d="M108 1314q-24 0 -34 10t-10 24t10 28t28 18q122 28 257 27t259 -19q30 -4 42 -21t10 -35t-19 -31t-45 -9q-126 20 -249 15t-249 -7z" />
<glyph unicode="&#xb0;" horiz-adv-x="382" d="M330 1478q10 -36 9 -76t-11 -78q-12 -40 -34 -71t-50 -47q-30 -18 -62 -18q-28 0 -55 19t-43 59q-16 32 -23 72t-7 84q2 40 11 73t25 55q-2 2 -2 8q2 8 12 12q48 28 94 28q50 0 85 -31t51 -89zM110 1354q2 -12 8 -34t17 -43t25 -37t32 -16q10 0 21 5t21 19q16 16 29 46 t20 66t6 73t-13 67q-24 54 -80 54q-30 0 -58 -10q-32 -46 -33 -101t5 -89z" />
<glyph unicode="&#xb1;" horiz-adv-x="942" d="M814 890q24 -2 34 -19t8 -36t-16 -33t-38 -12q-144 14 -290 18q-6 -84 -9 -167t1 -167q2 -26 -13 -39t-33 -13t-32 12t-12 38q4 84 8 169t8 173q-88 2 -175 5t-175 9q-16 2 -25 14t-10 26t7 26t26 14q88 6 177 8t179 0q2 76 3 152t3 152q0 22 15 31t31 8t30 -14t14 -33 q2 -76 -2 -150t-10 -150q74 -4 147 -8t149 -14zM108 222q-32 0 -47 10t-14 24t16 27t41 19q168 28 355 26t357 -18q40 -4 58 -21t15 -36t-26 -32t-63 -9q-176 20 -345 16t-347 -6z" />
<glyph unicode="&#xb2;" horiz-adv-x="474" d="M194 836q-4 -4 -6 -10t-6 -10q-12 -24 -23 -45t-5 -31q4 -4 16 -10t42 -6h62q16 0 33 2t33 2h2q12 0 24 -12q6 -10 6 -22q0 -16 -10 -27t-26 -11h-14q-16 -2 -32 -2h-32q-40 0 -85 5t-95 21q-12 6 -19 20t1 30q22 52 53 102t61 100q46 74 89 150t63 162q4 14 6 47t1 71 t-9 75t-24 59q-18 20 -40 20q-20 0 -42 -14q-52 -28 -58 -76q-6 -40 22 -98q6 -18 -2 -30q-10 -16 -26 -16q-14 0 -22 12q-38 50 -35 104t23 94q22 44 56 70t74 26q52 0 98 -52q70 -82 62 -216q-4 -64 -24 -120t-38 -96q-24 -48 -51 -94t-53 -90q-12 -22 -25 -42t-25 -42z " />
<glyph unicode="&#xb3;" horiz-adv-x="434" d="M354 1008q30 -64 34 -134t-18 -112q-28 -58 -67 -88t-81 -30q-34 0 -62 14q-26 12 -49 37t-36 55t-16 62t11 60q8 18 30 18t32 -24q2 -10 3 -19t3 -19q4 -36 14 -64t44 -42q12 -6 26 -6q34 0 61 34t31 72q2 24 0 52t-8 56t-17 54t-29 44q-32 38 -84 32q-18 -6 -32 14 q-6 14 -4 28q-6 14 0 30q4 12 22 22h2q34 10 63 34t47 64q20 34 26 75t0 77q-8 40 -32 74t-72 34h-2q-28 0 -52 -15t-32 -37q-14 -42 32 -76q16 -14 10 -32q-6 -20 -30 -20q-8 0 -16 4q-40 28 -56 66t-2 76q6 22 21 41t37 35q48 32 96 32q26 0 58 -12t60 -46q66 -86 48 -208 q-10 -58 -37 -111t-71 -87q28 -14 53 -43t41 -71z" />
<glyph unicode="&#xb4;" horiz-adv-x="410" d="M250 1650q10 22 29 27t36 -2t26 -25t1 -42q-18 -48 -45 -89t-59 -81q-30 -38 -66 -74t-82 -50q-16 -6 -34 6t-10 32q12 46 40 76t58 64q32 36 59 76t47 82z" />
<glyph unicode="&#xb5;" horiz-adv-x="1008" d="M918 132q20 -14 22 -35t-10 -37t-32 -23t-42 9q-62 40 -97 100t-57 130q-34 -58 -86 -94t-124 -46q-60 -8 -106 11t-81 56t-59 87t-42 102q6 -114 10 -205t4 -178t-7 -178t-21 -205q-4 -28 -21 -36t-35 -3t-30 23t-6 46q38 168 48 312t4 285t-19 288t-21 317 q-12 76 -19 154t-8 154t6 147t25 133q4 14 16 24t25 12t26 -4t17 -24q14 -46 16 -123t0 -172t-4 -200t2 -207t17 -195t44 -164t81 -111t128 -38q82 2 126 79t66 197q-2 12 -2 24v26q0 16 12 28q12 112 12 237t-5 239t-9 205t0 139q0 16 11 23t25 6t25 -10t13 -23 q6 -72 20 -188t23 -250t5 -273t-32 -257q8 -90 39 -177t107 -137z" />
<glyph unicode="&#xb6;" horiz-adv-x="776" d="M720 106q4 -18 -6 -29t-25 -12t-29 7t-18 26q-36 164 -48 330t-11 333t10 334t15 333q-12 -8 -22 -10h-34q4 -146 -8 -291t-24 -291q12 -6 17 -17t5 -23t-7 -22t-19 -14q-10 -162 -5 -321t51 -319q4 -18 -5 -31t-23 -18t-28 -1t-18 22q-46 162 -57 329t-1 339 q-96 8 -175 46t-132 101t-75 149t-2 190q16 92 75 143t139 75t167 26t161 -4q16 0 24 -14q6 10 16 15t20 4t18 -8t8 -21q2 -170 -3 -340t-6 -340t9 -339t46 -337z" />
<glyph unicode="&#xb7;" horiz-adv-x="180" d="M150 738q4 -10 3 -18t-3 -14q0 -14 -8 -30q-12 -12 -30 -23t-36 -11h-6q-26 4 -36 22q-12 18 -11 41t5 35v2q4 10 15 17t21 7q4 0 6 -2q8 6 20 6q14 0 24 -8q10 0 18 -2t12 -9t6 -13z" />
<glyph unicode="&#xb8;" horiz-adv-x="368" d="M216 -84q24 -10 44 -34t34 -56q22 -46 23 -90t-15 -70q-48 -82 -126 -82q-28 0 -50 10q-26 10 -46 33t-30 49q-16 42 4 70q6 14 24 14t26 -18l6 -30q4 -24 11 -42t35 -26q8 -2 20 -2q30 0 51 21t25 47q4 28 -5 67t-31 65q-16 16 -34 23t-40 3h-6q-20 0 -28 20q-4 12 6 24 q0 4 6 14h2q28 22 67 42t85 32q4 2 12 2q14 0 22 -8t10 -18q4 -22 -22 -28q-22 -4 -41 -13t-39 -19z" />
<glyph unicode="&#xb9;" horiz-adv-x="206" d="M134 1598q10 0 17 -7t7 -17v-2q-22 -120 -22 -240t4 -238q4 -106 5 -212t-13 -214q-4 -12 -13 -21t-25 -9q-14 0 -28 14q-10 10 -6 26q12 90 9 181t-7 181q-4 46 -6 92t-2 90q0 14 -1 26t-1 24q-2 40 -3 85t4 89t19 82t44 64q8 6 18 6z" />
<glyph unicode="&#xba;" horiz-adv-x="606" d="M526 1168q12 -59 15.5 -131.5t-8.5 -143.5t-43 -133t-90 -98q-67 -42 -123.5 -40.5t-100.5 33.5t-75 87.5t-47 123.5t-17 141t16 138t51.5 116t89.5 76q53 40 106.5 41.5t99 -25t79.5 -75.5t47 -110zM383 717q37 35 58.5 84t31 103.5t7.5 109.5t-12 101q-4 22 -10 46.5 t-16 49t-24 44.5t-33 34q-25 19 -49 21.5t-47 -3.5t-46 -18t-46 -23q-10 -5 -19 -2q-32 -33 -50 -77.5t-25.5 -93t-5.5 -97t10 -92.5q6 -29 18.5 -64.5t31.5 -68.5t42.5 -58.5t53 -37t62 -3t68.5 44.5z" />
<glyph unicode="&#xbb;" horiz-adv-x="906" d="M400 964q18 -20 40 -40t43 -50t35 -74t14 -110q0 -32 -8 -48t-18 -16q-70 -8 -140 -51t-134 -115q-22 -22 -43 -57t-42 -71t-43 -65t-42 -41q-12 -6 -21 20t-5 58q8 70 32 122t53 91t59 65t52 46q86 90 186 124q-96 90 -187 187t-175 229q-12 18 -13 49t4 58t14 41t21 -2 q38 -54 77 -99t79 -85l81 -81t81 -85zM738 958q18 -20 40 -40t43 -50t35 -74t14 -110q0 -32 -8 -48t-18 -16q-70 -8 -140 -52t-134 -114q-22 -22 -43 -57t-42 -71t-43 -65t-42 -41q-14 -8 -22 19t-4 57q8 72 32 124t53 91t59 65t52 46q44 46 91 76t95 48q-96 90 -187 187 t-175 229q-12 18 -13 49t4 58t14 41t21 -2q38 -54 77 -99t79 -85l81 -81t81 -85z" />
<glyph unicode="&#xbc;" horiz-adv-x="1120" d="M1051 388q12 -3 16 -12.5t0 -19t-13 -15.5t-22 -2q-21 6 -42 8t-43 3q-5 -74 -8 -146t-2 -147q0 -12 -8 -17.5t-18.5 -5t-19 8t-8.5 19.5q3 73 6 144.5t7 143.5q-56 -3 -112 -9t-112 -4q-12 2 -20 13t-2 22q35 72 65.5 151t63 157.5t72.5 152t93 134.5q8 8 16.5 8.5 t15.5 -4t8.5 -12.5t-3.5 -17q-5 -6 -8.5 -13.5t-8.5 -14.5q8 -129 2 -256.5t-16 -256.5q53 0 101 -13zM715 390q47 0 92 4t91 7q6 114 14.5 227t18.5 226q-64 -113 -112.5 -230t-103.5 -234zM666 1602q6 12 17 16t20 0t15 -13t2 -23q-56 -228 -110 -462t-117 -465t-139 -458 t-176 -439q-12 -26 -33 -31t-38 4t-25 30t6 45q78 138 133 285t97 299t78 306t74 308t84 304t112 294zM202 1599q6 5 14.5 1t7.5 -13q-19 -106 -20 -211.5t2.5 -210.5t4 -210.5t-13.5 -210.5q-1 -11 -9 -16t-16.5 -4t-15 7.5t-4.5 16.5q9 64 9.5 128t-3 128t-7.5 128t-5 129 q-1 36 -3.5 83t0.5 94t16 90t43 71z" />
<glyph unicode="&#xbd;" horiz-adv-x="1064" d="M793 627q4 -8 1 -14.5t-9 -10t-13 -3.5t-11 7q-24 32 -27.5 70.5t7.5 73.5t33.5 63t51 41t60 6t61.5 -41q35 -40 47 -90t8.5 -102t-20 -103.5t-37.5 -95.5q-32 -63 -68 -123t-71 -123q-14 -23 -27 -45t-15 -37.5t12 -25t54 -9.5q29 0 58.5 0.5t58.5 0.5q11 0 17 -7 t4.5 -16t-8 -17t-17.5 -8q-30 0 -59.5 -0.5t-59 1t-57.5 6.5t-57 17q-9 3 -13.5 12.5t-0.5 18.5q27 60 62.5 118t71.5 116.5t66.5 118t46.5 125.5q3 15 6 44.5t1.5 63.5t-7.5 68t-20 56.5t-37.5 30t-57.5 -11.5q-28 -16 -41.5 -35.5t-15.5 -42t4 -48t18 -49.5zM656 1602 q6 12 17 16t20 0t15 -13t2 -23q-56 -228 -110 -462t-117 -465t-139 -458t-176 -439q-12 -26 -33 -31t-38 4t-25 30t6 45q78 138 133 285t97 299t78 306t74 308t84 304t112 294zM185 1516q6 7 16 2t9 -15q-21 -123 -22.5 -244.5t2.5 -242.5t4.5 -243t-15.5 -244 q-1 -12 -10.5 -18t-19.5 -4.5t-17 9t-6 19.5q11 73 11.5 147t-3.5 148t-8.5 148t-6.5 149q-1 41 -3.5 95t0.5 108.5t18.5 104t50.5 81.5z" />
<glyph unicode="&#xbe;" horiz-adv-x="1222" d="M1163 436q13 -3 17 -13t0 -19.5t-13.5 -16t-22.5 -2.5q-22 6 -44 8t-45 3q-6 -76 -9 -151t-2 -153q0 -13 -8.5 -18.5t-19.5 -5t-19 8t-8 20.5q2 75 5.5 149.5t7.5 149.5q-59 -2 -117 -8.5t-116 -4.5q-13 2 -21.5 13.5t-1.5 23.5q36 75 67.5 157t66 163.5t75.5 158 t97 139.5q8 8 17 9t16 -4t9 -13t-3 -17q-5 -7 -9 -14.5t-9 -15.5q7 -134 1.5 -266.5t-16.5 -267.5q55 0 105 -13zM813 438q49 0 96 4.5t95 6.5q7 120 15 237t19 235q-66 -118 -116.5 -240t-108.5 -243zM826 1602q6 12 17 16t20 0t15 -13t2 -23q-56 -228 -110 -462t-117 -465 t-139 -458t-176 -439q-12 -26 -33 -31t-38 4t-25 30t6 45q78 138 133 285t97 299t78 306t74 308t84 304t112 294zM269 1082q44 -12 76.5 -57.5t50.5 -101t19.5 -112t-16.5 -92.5q-15 -30 -36.5 -55t-48.5 -40.5t-58 -18t-65 13.5q-25 11 -47 35t-36 52.5t-17 59.5t11 57 q7 15 23 14.5t20 -18.5q5 -21 7.5 -44.5t8.5 -45t20 -39t40 -25.5q26 -9 49.5 -2.5t42 23.5t30.5 40.5t15 48.5q4 36 -2.5 83t-25 87.5t-50 66.5t-78.5 18q-15 -2 -23 9.5t-3 24.5q-6 10 -2.5 23.5t19.5 17.5q41 9 72 37.5t51 67t27 81.5t0 82q-5 24 -14 45.5t-24 38.5 t-36 26t-47 9q-32 0 -57 -14t-36 -36.5t-5 -48.5t36 -48q7 -6 8 -13.5t-3.5 -14t-12.5 -8.5t-16 2q-47 33 -58 69.5t2 69.5t44 58t70 34.5t80 -1.5t73 -50q37 -46 47 -103.5t-2 -115t-44 -108.5t-79 -82z" />
<glyph unicode="&#xbf;" horiz-adv-x="574" d="M447 199q34 45 57.5 96t31.5 105t-1 107.5t-38 104.5q-34 57 -74 111t-74.5 109.5t-53.5 115.5t-9 128q2 22 -12 35.5t-33.5 16t-36.5 -5.5t-19 -30q-4 -82 17 -146t54.5 -121t74.5 -114.5t76 -127.5q20 -41 28 -99.5t-1 -116t-39.5 -104t-88.5 -64.5q-56 -16 -93.5 -2.5 t-56.5 44t-23 71.5t4 79q2 16 -8 28.5t-25 16t-30.5 -1t-21.5 -20.5q-24 -57 -16 -111t38.5 -97t75.5 -71t97.5 -32.5t105 17.5t94.5 79zM284 1333q34 3 61 16.5t27 49.5q0 18 -11 33t-28 26t-38 15.5t-39 0.5q-22 -5 -30.5 -22t-12.5 -39q-2 -1 -3 -3t-3 -4 q-20 -20 -13 -36t29 -27q11 -12 28 -14t33 4z" />
<glyph unicode="&#xc0;" d="M274 2032q-8 24 1 42t26 25t36 2t29 -27q20 -42 47 -82t59 -74q30 -34 58 -65t40 -77q6 -20 -11 -32t-33 -6q-46 14 -83 50t-65 74q-32 40 -59 81t-45 89zM774 24q0 -18 -9 -29t-22 -13t-26 5t-17 23q-24 96 -46 190t-44 190q-96 -18 -195 -31t-195 -9q-22 -82 -47 -162 t-53 -162q-6 -18 -21 -23t-28 0t-21 19t-2 32q108 318 178 639t100 655q-8 30 -14 61t-10 59q-4 16 10 25t26 -1v6q0 14 10 20t21 5t20 -9t9 -22q-2 -22 -3 -45t-3 -47q64 -124 101 -264t77 -270q30 -102 63 -206t61 -210t50 -213t30 -213zM238 426q90 10 178 20t176 26 q-16 76 -35 150t-41 150q-30 104 -69 207t-75 211q-20 -194 -53 -384t-81 -380z" />
<glyph unicode="&#xc1;" d="M466 2072q10 22 29 27t36 -2t26 -25t1 -42q-18 -48 -45 -89t-59 -81q-30 -38 -66 -74t-82 -50q-16 -6 -34 6t-10 32q12 46 40 76t58 64q32 36 59 76t47 82zM774 24q0 -18 -9 -29t-22 -13t-26 5t-17 23q-24 96 -46 190t-44 190q-96 -18 -195 -31t-195 -9q-22 -82 -47 -162 t-53 -162q-6 -18 -21 -23t-28 0t-21 19t-2 32q108 318 178 639t100 655q-8 30 -14 61t-10 59q-4 16 10 25t26 -1v6q0 14 10 20t21 5t20 -9t9 -22q-2 -22 -3 -45t-3 -47q64 -124 101 -264t77 -270q30 -102 63 -206t61 -210t50 -213t30 -213zM238 426q90 10 178 20t176 26 q-16 76 -35 150t-41 150q-30 104 -69 207t-75 211q-20 -194 -53 -384t-81 -380z" />
<glyph unicode="&#xc2;" d="M674 1786q8 -8 0 -14t-23 -8t-32 -1t-25 9q-56 46 -95 95t-95 97q-10 -30 -24 -62t-39 -62t-65 -53t-100 -33q-16 -4 -29 1t-7 13q24 28 67 55t63 57q22 36 36 71t30 69q6 14 36 16t48 -10q44 -28 76 -58t60 -61t55 -61t63 -60zM774 24q0 -18 -9 -29t-22 -13t-26 5 t-17 23q-24 96 -46 190t-44 190q-96 -18 -195 -31t-195 -9q-22 -82 -47 -162t-53 -162q-6 -18 -21 -23t-28 0t-21 19t-2 32q108 318 178 639t100 655q-8 30 -14 61t-10 59q-4 16 10 25t26 -1v6q0 14 10 20t21 5t20 -9t9 -22q-2 -22 -3 -45t-3 -47q64 -124 101 -264t77 -270 q30 -102 63 -206t61 -210t50 -213t30 -213zM238 426q90 10 178 20t176 26q-16 76 -35 150t-41 150q-30 104 -69 207t-75 211q-20 -194 -53 -384t-81 -380z" />
<glyph unicode="&#xc3;" d="M168 1680q-16 -16 -36 -17t-37 7t-26 22t-1 30q34 58 106 70t156 -22q34 -16 70 -35t76 -27q26 -6 46 0t36 18t31 25t35 21q18 4 38 -4t22 -26q4 -32 -17 -58t-57 -41t-81 -17t-87 10q-40 12 -76 29t-74 33q-52 20 -74 15t-50 -33zM774 24q0 -18 -9 -29t-22 -13t-26 5 t-17 23q-24 96 -46 190t-44 190q-96 -18 -195 -31t-195 -9q-22 -82 -47 -162t-53 -162q-6 -18 -21 -23t-28 0t-21 19t-2 32q108 318 178 639t100 655q-8 30 -14 61t-10 59q-4 16 10 25t26 -1v6q0 14 10 20t21 5t20 -9t9 -22q-2 -22 -3 -45t-3 -47q64 -124 101 -264t77 -270 q30 -102 63 -206t61 -210t50 -213t30 -213zM238 426q90 10 178 20t176 26q-16 76 -35 150t-41 150q-30 104 -69 207t-75 211q-20 -194 -53 -384t-81 -380z" />
<glyph unicode="&#xc4;" d="M646 1876q8 -16 8 -42q10 -24 -12 -42q-8 -10 -22 -14q-4 -2 -16 -7t-4 1q-14 -10 -33 -7t-25 21q-16 40 0 81t56 61q18 6 32 -2t18 -26q4 -16 -2 -24zM298 1876q8 -16 8 -42q10 -24 -12 -42q-8 -10 -22 -14q-6 -2 -17 -7t-3 1q-14 -10 -33 -7t-25 21q-16 40 0 81t56 61 q18 6 32 -2t18 -26q4 -16 -2 -24zM774 24q0 -18 -9 -29t-22 -13t-26 5t-17 23q-24 96 -46 190t-44 190q-96 -18 -195 -31t-195 -9q-22 -82 -47 -162t-53 -162q-6 -18 -21 -23t-28 0t-21 19t-2 32q108 318 178 639t100 655q-8 30 -14 61t-10 59q-4 16 10 25t26 -1v6 q0 14 10 20t21 5t20 -9t9 -22q-2 -22 -3 -45t-3 -47q64 -124 101 -264t77 -270q30 -102 63 -206t61 -210t50 -213t30 -213zM238 426q90 10 178 20t176 26q-16 76 -35 150t-41 150q-30 104 -69 207t-75 211q-20 -194 -53 -384t-81 -380z" />
<glyph unicode="&#xc5;" d="M508 1904q18 -78 -2 -156q-14 -40 -34 -70t-48 -46q-36 -18 -62 -18q-64 0 -100 78q-16 32 -24 72t-6 82q0 40 10 74t26 56v8t10 12q50 26 94 26q102 0 136 -118zM288 1780q2 -12 8 -34t17 -43t25 -37t32 -16q20 0 42 22q16 16 29 47t20 67t6 72t-13 66q-10 28 -31 42 t-49 14q-14 0 -28 -2t-32 -8q-30 -46 -31 -101t5 -89zM774 24q0 -18 -9 -29t-22 -13t-26 5t-17 23q-24 96 -46 190t-44 190q-96 -18 -195 -31t-195 -9q-22 -82 -47 -162t-53 -162q-6 -18 -21 -23t-28 0t-21 19t-2 32q108 318 178 639t100 655q-8 30 -14 61t-10 59 q-4 16 10 25t26 -1v6q0 14 10 20t21 5t20 -9t9 -22q-2 -22 -3 -45t-3 -47q64 -124 101 -264t77 -270q30 -102 63 -206t61 -210t50 -213t30 -213zM238 426q90 10 178 20t176 26q-16 76 -35 150t-41 150q-30 104 -69 207t-75 211q-20 -194 -53 -384t-81 -380z" />
<glyph unicode="&#xc6;" horiz-adv-x="1380" d="M1316 1470q20 0 29 -13t8 -30t-13 -30t-32 -13q-122 2 -251 4t-253 24q4 -158 0 -313t-6 -313q64 -8 125 -11t125 3q16 2 37 7t42 8t42 2t37 -9q12 -8 12 -21t-4 -23q-12 -20 -38 -29t-57 -12t-61 -3h-48q-52 0 -108 2t-104 26v-125t2 -125q0 2 0 -26t1 -71t4 -94t10 -95 t19 -74t30 -30q40 -2 79 -3t79 -3q66 -4 122 -10t118 -28q14 -6 19 -17t2 -23t-13 -21t-24 -7q-116 14 -231 17t-229 17q-34 4 -38 36q-40 346 -35 690t21 692q-14 8 -12 22t12 22q2 0 2 2q0 14 8 21t18 9t20 -3t16 -15q62 8 128 7t132 -5t131 -10t127 -6zM774 24 q0 -18 -9 -29t-22 -13t-26 5t-17 23q-24 96 -46 190t-44 190q-96 -18 -195 -31t-195 -9q-22 -82 -47 -162t-53 -162q-6 -18 -21 -23t-28 0t-21 19t-2 32q108 318 178 639t100 655q-8 30 -14 61t-10 59q-4 16 10 25t26 -1v6q0 14 10 20t21 5t20 -9t9 -22q-2 -22 -3 -45 t-3 -47q64 -124 101 -264t77 -270q30 -102 63 -206t61 -210t50 -213t30 -213zM238 426q90 10 178 20t176 26q-16 76 -35 150t-41 150q-30 104 -69 207t-75 211q-20 -194 -53 -384t-81 -380z" />
<glyph unicode="&#xc7;" horiz-adv-x="670" d="M616 1358q4 -18 -12 -26t-28 6q-76 74 -152 82t-136 -29t-99 -110t-39 -159q-2 -76 3 -150t1 -150q-4 -108 -10 -215t6 -211q4 -58 15 -123t57 -107q150 -178 222 90q-2 22 10 35t28 16t31 -5t19 -30q12 -76 -1 -136t-50 -96t-95 -41t-134 29q-62 30 -101 77t-61 105 t-30 124t-8 133t4 131t6 118q2 48 -2 109t-7 128t-2 136t11 132t34 115t68 88t116 58t143 19t126 -36t67 -107z" />
<glyph unicode="&#xc8;" horiz-adv-x="772" d="M244 2032q-8 24 1 42t26 25t36 2t29 -27q20 -42 47 -82t59 -74q30 -34 58 -65t40 -77q6 -20 -11 -32t-33 -6q-46 14 -83 50t-65 74q-32 40 -59 81t-45 89zM674 1476q20 0 29 -13t8 -30t-13 -30t-32 -13q-122 2 -251 4t-253 24q4 -158 0 -313t-6 -313q64 -8 125 -11t125 3 q16 2 37 7t42 8t42 2t37 -9q12 -8 12 -21t-4 -23q-12 -20 -38 -29t-57 -12t-61 -3h-48q-52 0 -108 2t-104 26v-125t2 -125q0 2 0 -26t1 -71t4 -94t10 -95t19 -74t30 -30q40 -2 79 -3t79 -3q66 -4 122 -10t118 -28q14 -6 19 -17t2 -23t-13 -21t-24 -7q-116 14 -231 17 t-229 17q-34 4 -38 36q-40 346 -35 690t21 692q-14 8 -12 22t12 22q2 0 2 2q0 14 8 21t18 9t20 -3t16 -15q62 8 128 7t132 -5t131 -10t127 -6z" />
<glyph unicode="&#xc9;" horiz-adv-x="772" d="M434 2072q10 22 29 27t36 -2t26 -25t1 -42q-18 -48 -45 -89t-59 -81q-30 -38 -66 -74t-82 -50q-16 -6 -34 6t-10 32q12 46 40 76t58 64q32 36 59 76t47 82zM674 1476q20 0 29 -13t8 -30t-13 -30t-32 -13q-122 2 -251 4t-253 24q4 -158 0 -313t-6 -313q64 -8 125 -11 t125 3q16 2 37 7t42 8t42 2t37 -9q12 -8 12 -21t-4 -23q-12 -20 -38 -29t-57 -12t-61 -3h-48q-52 0 -108 2t-104 26v-125t2 -125q0 2 0 -26t1 -71t4 -94t10 -95t19 -74t30 -30q40 -2 79 -3t79 -3q66 -4 122 -10t118 -28q14 -6 19 -17t2 -23t-13 -21t-24 -7q-116 14 -231 17 t-229 17q-34 4 -38 36q-40 346 -35 690t21 692q-14 8 -12 22t12 22q2 0 2 2q0 14 8 21t18 9t20 -3t16 -15q62 8 128 7t132 -5t131 -10t127 -6z" />
<glyph unicode="&#xca;" horiz-adv-x="772" d="M646 1786q8 -8 0 -14t-23 -8t-32 -1t-25 9q-56 46 -95 95t-95 97q-10 -30 -24 -62t-39 -62t-65 -53t-100 -33q-16 -4 -29 1t-7 13q24 28 67 55t63 57q22 36 36 71t30 69q6 14 36 16t48 -10q44 -28 76 -58t60 -61t55 -61t63 -60zM674 1476q20 0 29 -13t8 -30t-13 -30 t-32 -13q-122 2 -251 4t-253 24q4 -158 0 -313t-6 -313q64 -8 125 -11t125 3q16 2 37 7t42 8t42 2t37 -9q12 -8 12 -21t-4 -23q-12 -20 -38 -29t-57 -12t-61 -3h-48q-52 0 -108 2t-104 26v-125t2 -125q0 2 0 -26t1 -71t4 -94t10 -95t19 -74t30 -30q40 -2 79 -3t79 -3 q66 -4 122 -10t118 -28q14 -6 19 -17t2 -23t-13 -21t-24 -7q-116 14 -231 17t-229 17q-34 4 -38 36q-40 346 -35 690t21 692q-14 8 -12 22t12 22q2 0 2 2q0 14 8 21t18 9t20 -3t16 -15q62 8 128 7t132 -5t131 -10t127 -6z" />
<glyph unicode="&#xcb;" horiz-adv-x="772" d="M614 1876q8 -16 8 -42q10 -24 -12 -42q-8 -10 -22 -14q-4 -2 -16 -7t-4 1q-14 -10 -33 -7t-25 21q-16 40 0 81t56 61q18 6 32 -2t18 -26q4 -16 -2 -24zM266 1876q8 -16 8 -42q10 -24 -12 -42q-8 -10 -22 -14q-6 -2 -17 -7t-3 1q-14 -10 -33 -7t-25 21q-16 40 0 81t56 61 q18 6 32 -2t18 -26q4 -16 -2 -24zM674 1476q20 0 29 -13t8 -30t-13 -30t-32 -13q-122 2 -251 4t-253 24q4 -158 0 -313t-6 -313q64 -8 125 -11t125 3q16 2 37 7t42 8t42 2t37 -9q12 -8 12 -21t-4 -23q-12 -20 -38 -29t-57 -12t-61 -3h-48q-52 0 -108 2t-104 26v-125t2 -125 q0 2 0 -26t1 -71t4 -94t10 -95t19 -74t30 -30q40 -2 79 -3t79 -3q66 -4 122 -10t118 -28q14 -6 19 -17t2 -23t-13 -21t-24 -7q-116 14 -231 17t-229 17q-34 4 -38 36q-40 346 -35 690t21 692q-14 8 -12 22t12 22q2 0 2 2q0 14 8 21t18 9t20 -3t16 -15q62 8 128 7t132 -5 t131 -10t127 -6z" />
<glyph unicode="&#xcc;" horiz-adv-x="244" d="M-16 2032q-8 24 1 42t26 25t36 2t29 -27q20 -42 47 -82t59 -74q30 -34 58 -65t40 -77q6 -20 -11 -32t-33 -6q-46 14 -83 50t-65 74q-32 40 -59 81t-45 89zM98 1478q0 18 11 25t24 6t24 -11t11 -26q6 -180 15 -360t11 -361t-11 -361t-49 -356q-4 -20 -20 -29t-32 -7 t-27 13t-5 33q38 178 49 357t10 358t-8 359t-3 360z" />
<glyph unicode="&#xcd;" horiz-adv-x="244" d="M174 2072q10 22 29 27t36 -2t26 -25t1 -42q-18 -48 -45 -89t-59 -81q-30 -38 -66 -74t-82 -50q-16 -6 -34 6t-10 32q12 46 40 76t58 64q32 36 59 76t47 82zM98 1478q0 18 11 25t24 6t24 -11t11 -26q6 -180 15 -360t11 -361t-11 -361t-49 -356q-4 -20 -20 -29t-32 -7 t-27 13t-5 33q38 178 49 357t10 358t-8 359t-3 360z" />
<glyph unicode="&#xce;" horiz-adv-x="748" d="M256 1762q10 22 29 26t36 -3t26 -25t1 -42q-18 -48 -45 -89t-59 -81q-30 -36 -66 -73t-82 -49q-16 -6 -33 5t-11 31q12 46 40 77t58 65q32 34 59 74t47 84zM508 1748q20 -42 47 -82t59 -74q30 -34 58 -65t40 -77q6 -20 -11 -32t-33 -4q-46 12 -82 48t-66 74 q-32 40 -59 81t-45 89q-8 24 1 42t26 25t36 2t29 -27zM322 1450q0 18 11 25t24 6t24 -11t11 -26q6 -180 15 -360t11 -361t-11 -361t-49 -356q-4 -20 -20 -29t-32 -7t-27 13t-5 33q38 178 49 357t10 358t-8 359t-3 360z" />
<glyph unicode="&#xcf;" horiz-adv-x="244" d="M354 1876q8 -16 8 -42q10 -24 -12 -42q-8 -10 -22 -14q-4 -2 -16 -7t-4 1q-14 -10 -33 -7t-25 21q-16 40 0 81t56 61q18 6 32 -2t18 -26q4 -16 -2 -24zM6 1876q8 -16 8 -42q10 -24 -12 -42q-8 -10 -22 -14q-6 -2 -17 -7t-3 1q-14 -10 -33 -7t-25 21q-16 40 0 81t56 61 q18 6 32 -2t18 -26q4 -16 -2 -24zM98 1478q0 18 11 25t24 6t24 -11t11 -26q6 -180 15 -360t11 -361t-11 -361t-49 -356q-4 -20 -20 -29t-32 -7t-27 13t-5 33q38 178 49 357t10 358t-8 359t-3 360z" />
<glyph unicode="&#xd0;" horiz-adv-x="796" d="M630 1362q62 -78 86 -167t27 -183t-7 -190t-16 -186q-8 -148 -45 -277t-112 -217t-193 -127t-288 -5q-14 2 -22 12t-9 22t5 22t22 12q22 4 44 5t44 3v2q36 168 51 336t14 335t-15 334t-36 337h-36q-14 0 -22 10t-8 22t7 22t21 12q72 2 139 5t129 -8t117 -40t103 -91z M642 646q8 72 18 152t12 161t-12 159t-54 144q-36 60 -76 94t-84 51t-94 20t-104 3q70 -326 74 -669t-70 -671q42 4 85 11t81 21t71 38t55 64q30 48 46 100t25 105t14 107t13 110zM582 854q18 -4 26 -18t7 -29t-12 -26t-29 -7q-84 16 -163 13t-163 -5q-16 0 -23 8t-7 20 t8 23t20 15q78 22 167 21t169 -15z" />
<glyph unicode="&#xd1;" horiz-adv-x="834" d="M170 1712q-16 -16 -36 -17t-37 7t-26 22t-1 30q34 58 106 70t156 -22q34 -16 70 -35t76 -27q26 -6 46 0t36 18t31 25t35 21q18 4 38 -4t22 -26q4 -32 -17 -58t-57 -41t-81 -17t-87 10q-40 12 -76 29t-74 33q-52 20 -74 15t-50 -33zM678 1488q62 -158 85 -346t17 -383 t-35 -385t-71 -350q-4 -16 -18 -21t-29 -2t-26 14t-7 29q2 4 2 10t2 10q-54 140 -113 280t-117 283t-111 286t-95 289q10 -304 3 -605t-47 -603q-2 -16 -14 -24t-24 -6t-21 11t-7 25q20 186 28 371t11 369t4 369t7 371q2 22 25 23t25 -21v-24t2 -24q140 -290 249 -596 t221 -610q44 314 47 621t-39 625q-2 10 4 18t14 10t16 -1t12 -13z" />
<glyph unicode="&#xd2;" horiz-adv-x="818" d="M266 2032q-8 24 1 42t26 25t36 2t29 -27q20 -42 47 -82t59 -74q30 -34 58 -65t40 -77q6 -20 -11 -32t-33 -6q-46 14 -83 50t-65 74q-32 40 -59 81t-45 89zM154 1424q132 90 236 94t180 -56t124 -170t70 -245t19 -283t-32 -284t-83 -247t-130 -173q-88 -70 -160 -68 t-129 59t-99 156t-67 222t-34 258t0 263t34 238t69 182q-10 10 -11 27t13 27zM542 154q40 54 74 149t56 210t30 241t-2 243t-41 215t-88 156t-141 66t-202 -54q-44 -84 -66 -184t-29 -204t-3 -207t14 -193q4 -40 18 -111t37 -148t57 -146t77 -105t95 -24t114 96z" />
<glyph unicode="&#xd3;" horiz-adv-x="818" d="M476 1958q10 22 29 27t36 -2t26 -25t1 -42q-18 -48 -45 -89t-59 -81q-30 -38 -66 -74t-82 -50q-16 -6 -34 6t-10 32q12 46 40 76t58 64q32 36 59 76t47 82zM154 1424q132 90 236 94t180 -56t124 -170t70 -245t19 -283t-32 -284t-83 -247t-130 -173q-88 -70 -160 -68 t-129 59t-99 156t-67 222t-34 258t0 263t34 238t69 182q-10 10 -11 27t13 27zM542 154q40 54 74 149t56 210t30 241t-2 243t-41 215t-88 156t-141 66t-202 -54q-44 -84 -66 -184t-29 -204t-3 -207t14 -193q4 -40 18 -111t37 -148t57 -146t77 -105t95 -24t114 96z" />
<glyph unicode="&#xd4;" horiz-adv-x="818" d="M674 1690q8 -8 0 -14t-23 -8t-32 -1t-25 9q-56 46 -95 95t-95 97q-10 -30 -24 -62t-39 -62t-65 -53t-100 -33q-16 -4 -29 1t-7 13q24 28 67 55t63 57q22 36 36 71t30 69q6 14 36 16t48 -10q44 -28 76 -58t60 -61t55 -61t63 -60zM154 1424q132 90 236 94t180 -56t124 -170 t70 -245t19 -283t-32 -284t-83 -247t-130 -173q-88 -70 -160 -68t-129 59t-99 156t-67 222t-34 258t0 263t34 238t69 182q-10 10 -11 27t13 27zM542 154q40 54 74 149t56 210t30 241t-2 243t-41 215t-88 156t-141 66t-202 -54q-44 -84 -66 -184t-29 -204t-3 -207t14 -193 q4 -40 18 -111t37 -148t57 -146t77 -105t95 -24t114 96z" />
<glyph unicode="&#xd5;" horiz-adv-x="818" d="M196 1690q-16 -16 -36 -17t-37 7t-26 22t-1 30q34 58 106 70t156 -22q34 -16 70 -35t76 -27q26 -6 46 0t36 18t31 25t35 21q18 4 38 -4t22 -26q4 -32 -17 -58t-57 -41t-81 -17t-87 10q-40 12 -76 29t-74 33q-52 20 -74 15t-50 -33zM154 1424q132 90 236 94t180 -56 t124 -170t70 -245t19 -283t-32 -284t-83 -247t-130 -173q-88 -70 -160 -68t-129 59t-99 156t-67 222t-34 258t0 263t34 238t69 182q-10 10 -11 27t13 27zM542 154q40 54 74 149t56 210t30 241t-2 243t-41 215t-88 156t-141 66t-202 -54q-44 -84 -66 -184t-29 -204t-3 -207 t14 -193q4 -40 18 -111t37 -148t57 -146t77 -105t95 -24t114 96z" />
<glyph unicode="&#xd6;" horiz-adv-x="818" d="M638 1876q8 -16 8 -42q10 -24 -12 -42q-8 -10 -22 -14q-4 -2 -16 -7t-4 1q-14 -10 -33 -7t-25 21q-16 40 0 81t56 61q18 6 32 -2t18 -26q4 -16 -2 -24zM290 1876q8 -16 8 -42q10 -24 -12 -42q-8 -10 -22 -14q-6 -2 -17 -7t-3 1q-14 -10 -33 -7t-25 21q-16 40 0 81t56 61 q18 6 32 -2t18 -26q4 -16 -2 -24zM154 1424q132 90 236 94t180 -56t124 -170t70 -245t19 -283t-32 -284t-83 -247t-130 -173q-88 -70 -160 -68t-129 59t-99 156t-67 222t-34 258t0 263t34 238t69 182q-10 10 -11 27t13 27zM542 154q40 54 74 149t56 210t30 241t-2 243 t-41 215t-88 156t-141 66t-202 -54q-44 -84 -66 -184t-29 -204t-3 -207t14 -193q4 -40 18 -111t37 -148t57 -146t77 -105t95 -24t114 96z" />
<glyph unicode="&#xd7;" horiz-adv-x="784" d="M712 54q8 -16 3 -28t-17 -18t-27 -3t-23 17q-70 120 -141 236t-141 236q-52 -116 -88 -236t-90 -234q-10 -22 -27 -25t-32 5t-21 24t6 36q38 54 64 116t47 128t42 131t51 125q2 2 2 3t2 3q-68 112 -133 226t-127 232q-6 12 -2 22t13 15t21 2t18 -15q58 -106 119 -210 t125 -208q60 108 127 213t111 225q8 20 32 15t20 -29q-16 -70 -43 -133t-62 -123t-72 -119t-69 -121q78 -126 157 -253t155 -255z" />
<glyph unicode="&#xd8;" horiz-adv-x="818" d="M684 1602q6 12 17 16t20 0t15 -13t2 -23q-56 -228 -110 -462t-117 -465t-139 -458t-176 -439q-12 -26 -33 -31t-38 4t-25 30t6 45q78 138 133 285t97 299t78 306t74 308t84 304t112 294zM154 1424q132 90 236 94t180 -56t124 -170t70 -245t19 -283t-32 -284t-83 -247 t-130 -173q-88 -70 -160 -68t-129 59t-99 156t-67 222t-34 258t0 263t34 238t69 182q-10 10 -11 27t13 27zM542 154q40 54 74 149t56 210t30 241t-2 243t-41 215t-88 156t-141 66t-202 -54q-44 -84 -66 -184t-29 -204t-3 -207t14 -193q4 -40 18 -111t37 -148t57 -146 t77 -105t95 -24t114 96z" />
<glyph unicode="&#xd9;" horiz-adv-x="740" d="M228 2032q-8 24 1 42t26 25t36 2t29 -27q20 -42 47 -82t59 -74q30 -34 58 -65t40 -77q6 -20 -11 -32t-33 -6q-46 14 -83 50t-65 74q-32 40 -59 81t-45 89zM632 1528q42 -98 53 -222t5 -255t-21 -258t-21 -229q-4 -40 -7 -97t-12 -119t-24 -124t-40 -112t-64 -83t-95 -39 q-86 -10 -146 39t-101 137t-64 206t-33 248t-9 262t8 248t17 206t18 136q4 22 26 23t26 -21q12 -72 13 -149t-2 -154t-7 -154t-2 -151q0 -12 8 -90t24 -183t40 -217t57 -194t74 -115t91 23q58 64 87 165t41 213t12 221t2 189t-3 160t-10 159t-9 159t0 160q0 14 9 22t20 10 t22 -3t17 -17z" />
<glyph unicode="&#xda;" horiz-adv-x="740" d="M418 2072q10 22 29 27t36 -2t26 -25t1 -42q-18 -48 -45 -89t-59 -81q-30 -38 -66 -74t-82 -50q-16 -6 -34 6t-10 32q12 46 40 76t58 64q32 36 59 76t47 82zM632 1528q42 -98 53 -222t5 -255t-21 -258t-21 -229q-4 -40 -7 -97t-12 -119t-24 -124t-40 -112t-64 -83t-95 -39 q-86 -10 -146 39t-101 137t-64 206t-33 248t-9 262t8 248t17 206t18 136q4 22 26 23t26 -21q12 -72 13 -149t-2 -154t-7 -154t-2 -151q0 -12 8 -90t24 -183t40 -217t57 -194t74 -115t91 23q58 64 87 165t41 213t12 221t2 189t-3 160t-10 159t-9 159t0 160q0 14 9 22t20 10 t22 -3t17 -17z" />
<glyph unicode="&#xdb;" horiz-adv-x="740" d="M628 1786q8 -8 0 -14t-23 -8t-32 -1t-25 9q-56 46 -95 95t-95 97q-10 -30 -24 -62t-39 -62t-65 -53t-100 -33q-16 -4 -29 1t-7 13q24 28 67 55t63 57q22 36 36 71t30 69q6 14 36 16t48 -10q44 -28 76 -58t60 -61t55 -61t63 -60zM632 1528q42 -98 53 -222t5 -255t-21 -258 t-21 -229q-4 -40 -7 -97t-12 -119t-24 -124t-40 -112t-64 -83t-95 -39q-86 -10 -146 39t-101 137t-64 206t-33 248t-9 262t8 248t17 206t18 136q4 22 26 23t26 -21q12 -72 13 -149t-2 -154t-7 -154t-2 -151q0 -12 8 -90t24 -183t40 -217t57 -194t74 -115t91 23q58 64 87 165 t41 213t12 221t2 189t-3 160t-10 159t-9 159t0 160q0 14 9 22t20 10t22 -3t17 -17z" />
<glyph unicode="&#xdc;" horiz-adv-x="740" d="M598 1876q8 -16 8 -42q10 -24 -12 -42q-8 -10 -22 -14q-4 -2 -16 -7t-4 1q-14 -10 -33 -7t-25 21q-16 40 0 81t56 61q18 6 32 -2t18 -26q4 -16 -2 -24zM250 1876q8 -16 8 -42q10 -24 -12 -42q-8 -10 -22 -14q-6 -2 -17 -7t-3 1q-14 -10 -33 -7t-25 21q-16 40 0 81t56 61 q18 6 32 -2t18 -26q4 -16 -2 -24zM632 1528q42 -98 53 -222t5 -255t-21 -258t-21 -229q-4 -40 -7 -97t-12 -119t-24 -124t-40 -112t-64 -83t-95 -39q-86 -10 -146 39t-101 137t-64 206t-33 248t-9 262t8 248t17 206t18 136q4 22 26 23t26 -21q12 -72 13 -149t-2 -154 t-7 -154t-2 -151q0 -12 8 -90t24 -183t40 -217t57 -194t74 -115t91 23q58 64 87 165t41 213t12 221t2 189t-3 160t-10 159t-9 159t0 160q0 14 9 22t20 10t22 -3t17 -17z" />
<glyph unicode="&#xdd;" horiz-adv-x="798" d="M448 2072q10 22 29 27t36 -2t26 -25t1 -42q-18 -48 -45 -89t-59 -81q-30 -38 -66 -74t-82 -50q-16 -6 -34 6t-10 32q12 46 40 76t58 64q32 36 59 76t47 82zM408 638q-4 -18 -18 -24q28 -68 34 -147t8 -151q0 -36 1 -78t-2 -84t-11 -83t-28 -73q-8 -14 -20 -16t-22 3 t-18 16t-8 23q-4 74 11 149t15 151q-2 84 -12 163t-24 163q-2 14 6 22q-2 4 -3 5t-3 5q-40 94 -71 191t-60 196t-59 198t-68 195q-8 18 0 33t22 22t30 3t24 -22q34 -80 70 -165t69 -172t59 -177t40 -178q64 180 157 350t181 336q10 20 29 9t13 -31q-36 -106 -84 -208 l-96 -204t-91 -206t-71 -214z" />
<glyph unicode="&#xde;" horiz-adv-x="682" d="M382 1006q62 -28 111 -78t81 -113t47 -133t13 -136q-2 -62 -18 -133t-46 -138t-71 -125t-95 -94q-56 -40 -100 -38t-77 30t-54 76t-31 100v-77t1 -103t1 -103v-77q-14 -76 -29 -92t-27 0t-20 48t-8 54q0 196 -1 365t-1 333t2 332t12 364q0 12 9 18t19 6t18 -5t8 -17 q4 -56 6 -88t4 -52t3 -35t2 -35t2 -52t1 -86q38 60 98 89t140 -5zM560 552q0 50 -10 106t-32 109t-56 96t-82 71q-46 26 -83 22t-66 -27t-51 -60t-36 -77v-255t-2 -255q8 14 22 21t29 6t27 -10t16 -29q2 -12 6 -41t12 -58t22 -50t36 -17q34 6 63 36t49 58q52 76 93 168 t43 186z" />
<glyph unicode="&#xdf;" horiz-adv-x="664" d="M58 1426q0 14 7 21t16 6t17 -10t8 -23q8 -414 7 -821t5 -821q0 -22 -11 -32t-24 -8t-24 14t-11 36q-2 412 4 818t6 820zM346 766q90 -22 148 -74t89 -119t36 -145t-10 -151t-51 -136t-87 -100t-115 -44t-138 31q-16 8 -21 22t-1 26t16 19t30 3q102 -26 174 11t110 107 t40 159t-33 165t-111 126t-192 44q-20 0 -34 14q-4 0 -5 -1t-5 -1q-2 8 -1 12t1 8q-4 16 2 30t28 16q114 12 187 69t105 134t25 160t-53 148t-130 99t-204 12q-22 -6 -27 14t13 30q96 60 180 47t144 -73t92 -152t24 -189t-62 -184t-164 -137z" />
<glyph unicode="&#xe0;" horiz-adv-x="886" d="M302 1610q-8 24 1 42t26 25t36 2t29 -27q20 -42 47 -82t59 -74q30 -34 58 -65t40 -77q6 -20 -11 -32t-33 -6q-46 14 -83 50t-65 74q-32 40 -59 81t-45 89zM780 158q14 10 28 8t22 -12t8 -24t-12 -26q-60 -58 -105 -65t-78 23t-57 91t-38 137q-10 -36 -27 -83t-41 -89 t-58 -75t-76 -41q-78 -18 -136 25t-95 112t-54 149t-13 138q6 70 17 154t33 168t58 158t94 122q46 38 95 48t94 -4t81 -47t54 -79q14 -14 14 -32v-16q6 -28 2 -68q0 -4 -1 -5t-1 -5q-2 -88 -2 -173t6 -171q2 -42 8 -114t24 -134t55 -90t101 20zM476 270q20 80 24 161t1 163 t-4 163t11 163q0 4 1 5t1 3q-20 30 -45 52t-54 31t-59 2t-60 -37q-36 -40 -62 -88t-42 -100q-28 -90 -48 -182t-24 -186q-2 -34 4 -73t18 -77t28 -73t38 -61q44 -54 86 -57t79 24t65 73t42 94z" />
<glyph unicode="&#xe1;" horiz-adv-x="886" d="M440 1588q10 22 29 27t36 -2t26 -25t1 -42q-18 -48 -45 -89t-59 -81q-30 -38 -66 -74t-82 -50q-16 -6 -34 6t-10 32q12 46 40 76t58 64q32 36 59 76t47 82zM780 158q14 10 28 8t22 -12t8 -24t-12 -26q-60 -58 -105 -65t-78 23t-57 91t-38 137q-10 -36 -27 -83t-41 -89 t-58 -75t-76 -41q-78 -18 -136 25t-95 112t-54 149t-13 138q6 70 17 154t33 168t58 158t94 122q46 38 95 48t94 -4t81 -47t54 -79q14 -14 14 -32v-16q6 -28 2 -68q0 -4 -1 -5t-1 -5q-2 -88 -2 -173t6 -171q2 -42 8 -114t24 -134t55 -90t101 20zM476 270q20 80 24 161t1 163 t-4 163t11 163q0 4 1 5t1 3q-20 30 -45 52t-54 31t-59 2t-60 -37q-36 -40 -62 -88t-42 -100q-28 -90 -48 -182t-24 -186q-2 -34 4 -73t18 -77t28 -73t38 -61q44 -54 86 -57t79 24t65 73t42 94z" />
<glyph unicode="&#xe2;" horiz-adv-x="886" d="M702 1364q8 -8 0 -14t-23 -8t-32 -1t-25 9q-56 46 -95 95t-95 97q-10 -30 -24 -62t-39 -62t-65 -53t-100 -33q-16 -4 -29 1t-7 13q24 28 67 55t63 57q22 36 36 71t30 69q6 14 36 16t48 -10q44 -28 76 -58t60 -61t55 -61t63 -60zM780 158q14 10 28 8t22 -12t8 -24t-12 -26 q-60 -58 -105 -65t-78 23t-57 91t-38 137q-10 -36 -27 -83t-41 -89t-58 -75t-76 -41q-78 -18 -136 25t-95 112t-54 149t-13 138q6 70 17 154t33 168t58 158t94 122q46 38 95 48t94 -4t81 -47t54 -79q14 -14 14 -32v-16q6 -28 2 -68q0 -4 -1 -5t-1 -5q-2 -88 -2 -173t6 -171 q2 -42 8 -114t24 -134t55 -90t101 20zM476 270q20 80 24 161t1 163t-4 163t11 163q0 4 1 5t1 3q-20 30 -45 52t-54 31t-59 2t-60 -37q-36 -40 -62 -88t-42 -100q-28 -90 -48 -182t-24 -186q-2 -34 4 -73t18 -77t28 -73t38 -61q44 -54 86 -57t79 24t65 73t42 94z" />
<glyph unicode="&#xe3;" horiz-adv-x="886" d="M172 1246q-16 -16 -36 -17t-37 7t-26 22t-1 30q34 58 106 70t156 -22q34 -16 70 -35t76 -27q26 -6 46 0t36 18t31 25t35 21q18 4 38 -4t22 -26q4 -32 -17 -58t-57 -41t-81 -17t-87 10q-40 12 -76 29t-74 33q-52 20 -74 15t-50 -33zM780 158q14 10 28 8t22 -12t8 -24 t-12 -26q-60 -58 -105 -65t-78 23t-57 91t-38 137q-10 -36 -27 -83t-41 -89t-58 -75t-76 -41q-78 -18 -136 25t-95 112t-54 149t-13 138q6 70 17 154t33 168t58 158t94 122q46 38 95 48t94 -4t81 -47t54 -79q14 -14 14 -32v-16q6 -28 2 -68q0 -4 -1 -5t-1 -5q-2 -88 -2 -173 t6 -171q2 -42 8 -114t24 -134t55 -90t101 20zM476 270q20 80 24 161t1 163t-4 163t11 163q0 4 1 5t1 3q-20 30 -45 52t-54 31t-59 2t-60 -37q-36 -40 -62 -88t-42 -100q-28 -90 -48 -182t-24 -186q-2 -34 4 -73t18 -77t28 -73t38 -61q44 -54 86 -57t79 24t65 73t42 94z" />
<glyph unicode="&#xe4;" horiz-adv-x="886" d="M672 1454q8 -16 8 -42q10 -24 -12 -42q-8 -10 -22 -14q-4 -2 -16 -7t-4 1q-14 -10 -33 -7t-25 21q-16 40 0 81t56 61q18 6 32 -2t18 -26q4 -16 -2 -24zM324 1454q8 -16 8 -42q10 -24 -12 -42q-8 -10 -22 -14q-6 -2 -17 -7t-3 1q-14 -10 -33 -7t-25 21q-16 40 0 81t56 61 q18 6 32 -2t18 -26q4 -16 -2 -24zM780 158q14 10 28 8t22 -12t8 -24t-12 -26q-60 -58 -105 -65t-78 23t-57 91t-38 137q-10 -36 -27 -83t-41 -89t-58 -75t-76 -41q-78 -18 -136 25t-95 112t-54 149t-13 138q6 70 17 154t33 168t58 158t94 122q46 38 95 48t94 -4t81 -47 t54 -79q14 -14 14 -32v-16q6 -28 2 -68q0 -4 -1 -5t-1 -5q-2 -88 -2 -173t6 -171q2 -42 8 -114t24 -134t55 -90t101 20zM476 270q20 80 24 161t1 163t-4 163t11 163q0 4 1 5t1 3q-20 30 -45 52t-54 31t-59 2t-60 -37q-36 -40 -62 -88t-42 -100q-28 -90 -48 -182t-24 -186 q-2 -34 4 -73t18 -77t28 -73t38 -61q44 -54 86 -57t79 24t65 73t42 94z" />
<glyph unicode="&#xe5;" horiz-adv-x="886" d="M516 1432q18 -78 -2 -156q-14 -40 -34 -70t-48 -46q-36 -18 -62 -18q-64 0 -100 78q-16 32 -24 72t-6 82q0 40 10 74t26 56v8t10 12q50 26 94 26q102 0 136 -118zM296 1308q2 -12 8 -34t17 -43t25 -37t32 -16q20 0 42 22q16 16 29 47t20 67t6 72t-13 66q-10 28 -31 42 t-49 14q-14 0 -28 -2t-32 -8q-30 -46 -31 -101t5 -89zM780 158q14 10 28 8t22 -12t8 -24t-12 -26q-60 -58 -105 -65t-78 23t-57 91t-38 137q-10 -36 -27 -83t-41 -89t-58 -75t-76 -41q-78 -18 -136 25t-95 112t-54 149t-13 138q6 70 17 154t33 168t58 158t94 122 q46 38 95 48t94 -4t81 -47t54 -79q14 -14 14 -32v-16q6 -28 2 -68q0 -4 -1 -5t-1 -5q-2 -88 -2 -173t6 -171q2 -42 8 -114t24 -134t55 -90t101 20zM476 270q20 80 24 161t1 163t-4 163t11 163q0 4 1 5t1 3q-20 30 -45 52t-54 31t-59 2t-60 -37q-36 -40 -62 -88t-42 -100 q-28 -90 -48 -182t-24 -186q-2 -34 4 -73t18 -77t28 -73t38 -61q44 -54 86 -57t79 24t65 73t42 94z" />
<glyph unicode="&#xe6;" horiz-adv-x="1182" d="M638 542q-20 10 -10 30t26 20q32 0 77 -10t92 -16t90 -3t69 29q46 44 60 105t0 119q-18 78 -70 125t-112 56t-117 -25t-89 -118q-24 -64 -38 -137t-15 -150t11 -151t40 -136q28 -58 72 -110t108 -72q54 -16 86 -6t51 36t29 65t18 81q2 16 12 24t22 9t22 -6t14 -23 q16 -76 -1 -131t-54 -88t-88 -46t-106 -4t-108 40t-91 83q-60 82 -93 197t-35 236t29 234t101 193q68 78 150 93t156 -16t126 -101t58 -164q8 -112 -33 -186t-112 -107t-163 -25t-184 56zM780 158q14 10 28 8t22 -12t8 -24t-12 -26q-60 -58 -105 -65t-78 23t-57 91t-38 137 q-10 -36 -27 -83t-41 -89t-58 -75t-76 -41q-78 -18 -136 25t-95 112t-54 149t-13 138q6 70 17 154t33 168t58 158t94 122q46 38 95 48t94 -4t81 -47t54 -79q14 -14 14 -32v-16q6 -28 2 -68q0 -4 -1 -5t-1 -5q-2 -88 -2 -173t6 -171q2 -42 8 -114t24 -134t55 -90t101 20z M476 270q20 80 24 161t1 163t-4 163t11 163q0 4 1 5t1 3q-20 30 -45 52t-54 31t-59 2t-60 -37q-36 -40 -62 -88t-42 -100q-28 -90 -48 -182t-24 -186q-2 -34 4 -73t18 -77t28 -73t38 -61q44 -54 86 -57t79 24t65 73t42 94z" />
<glyph unicode="&#xe7;" horiz-adv-x="744" d="M650 926q-2 -12 -14 -18t-22 2q-24 18 -45 39t-45 36t-51 20t-61 -11q-46 -24 -86 -54t-70 -70q-54 -70 -78 -143t-24 -163q0 -88 12 -186t58 -178q14 -24 37 -47t51 -39t60 -24t62 0q74 16 99 72t29 122q0 22 14 31t31 8t30 -13t13 -34q-4 -70 -33 -132t-77 -101 t-111 -47t-137 30q-70 36 -114 92t-68 123t-33 142t-9 149q0 152 55 286t191 218q44 26 103 39t111 4t88 -45t34 -108z" />
<glyph unicode="&#xe8;" horiz-adv-x="716" d="M218 1610q-8 24 1 42t26 25t36 2t29 -27q20 -42 47 -82t59 -74q30 -34 58 -65t40 -77q6 -20 -11 -32t-33 -6q-46 14 -83 50t-65 74q-32 40 -59 81t-45 89zM182 534q-20 10 -10 30t26 20q32 0 77 -10t92 -16t90 -3t69 29q46 44 60 105t0 119q-18 78 -70 125t-112 56 t-117 -25t-89 -118q-24 -64 -38 -137t-15 -150t11 -151t40 -136q28 -58 72 -110t108 -72q54 -16 86 -6t51 36t29 65t18 81q2 16 12 24t22 9t22 -6t14 -23q16 -76 -1 -131t-54 -88t-88 -46t-106 -4t-108 40t-91 83q-60 82 -93 197t-35 236t29 234t101 193q68 78 150 93 t156 -16t126 -101t58 -164q8 -112 -33 -186t-112 -107t-163 -25t-184 56z" />
<glyph unicode="&#xe9;" horiz-adv-x="716" d="M408 1650q10 22 29 27t36 -2t26 -25t1 -42q-18 -48 -45 -89t-59 -81q-30 -38 -66 -74t-82 -50q-16 -6 -34 6t-10 32q12 46 40 76t58 64q32 36 59 76t47 82zM182 534q-20 10 -10 30t26 20q32 0 77 -10t92 -16t90 -3t69 29q46 44 60 105t0 119q-18 78 -70 125t-112 56 t-117 -25t-89 -118q-24 -64 -38 -137t-15 -150t11 -151t40 -136q28 -58 72 -110t108 -72q54 -16 86 -6t51 36t29 65t18 81q2 16 12 24t22 9t22 -6t14 -23q16 -76 -1 -131t-54 -88t-88 -46t-106 -4t-108 40t-91 83q-60 82 -93 197t-35 236t29 234t101 193q68 78 150 93 t156 -16t126 -101t58 -164q8 -112 -33 -186t-112 -107t-163 -25t-184 56z" />
<glyph unicode="&#xea;" horiz-adv-x="716" d="M616 1364q8 -8 0 -14t-23 -8t-32 -1t-25 9q-56 46 -95 95t-95 97q-10 -30 -24 -62t-39 -62t-65 -53t-100 -33q-16 -4 -29 1t-7 13q24 28 67 55t63 57q22 36 36 71t30 69q6 14 36 16t48 -10q44 -28 76 -58t60 -61t55 -61t63 -60zM182 534q-20 10 -10 30t26 20q32 0 77 -10 t92 -16t90 -3t69 29q46 44 60 105t0 119q-18 78 -70 125t-112 56t-117 -25t-89 -118q-24 -64 -38 -137t-15 -150t11 -151t40 -136q28 -58 72 -110t108 -72q54 -16 86 -6t51 36t29 65t18 81q2 16 12 24t22 9t22 -6t14 -23q16 -76 -1 -131t-54 -88t-88 -46t-106 -4t-108 40 t-91 83q-60 82 -93 197t-35 236t29 234t101 193q68 78 150 93t156 -16t126 -101t58 -164q8 -112 -33 -186t-112 -107t-163 -25t-184 56z" />
<glyph unicode="&#xeb;" horiz-adv-x="716" d="M588 1454q8 -16 8 -42q10 -24 -12 -42q-8 -10 -22 -14q-4 -2 -16 -7t-4 1q-14 -10 -33 -7t-25 21q-16 40 0 81t56 61q18 6 32 -2t18 -26q4 -16 -2 -24zM240 1454q8 -16 8 -42q10 -24 -12 -42q-8 -10 -22 -14q-6 -2 -17 -7t-3 1q-14 -10 -33 -7t-25 21q-16 40 0 81t56 61 q18 6 32 -2t18 -26q4 -16 -2 -24zM182 534q-20 10 -10 30t26 20q32 0 77 -10t92 -16t90 -3t69 29q46 44 60 105t0 119q-18 78 -70 125t-112 56t-117 -25t-89 -118q-24 -64 -38 -137t-15 -150t11 -151t40 -136q28 -58 72 -110t108 -72q54 -16 86 -6t51 36t29 65t18 81 q2 16 12 24t22 9t22 -6t14 -23q16 -76 -1 -131t-54 -88t-88 -46t-106 -4t-108 40t-91 83q-60 82 -93 197t-35 236t29 234t101 193q68 78 150 93t156 -16t126 -101t58 -164q8 -112 -33 -186t-112 -107t-163 -25t-184 56z" />
<glyph unicode="&#xec;" horiz-adv-x="316" d="M112 1050q2 16 13 24t23 9t23 -6t13 -23q10 -150 19 -300t9 -300q0 -54 1 -111t-4 -113t-17 -110t-38 -104q-6 -10 -16 -12t-20 0t-18 9t-8 17q-4 62 0 124t9 124t10 125t5 125q-4 132 -8 262t4 260zM16 1610q-8 24 1 42t26 25t36 2t29 -27q20 -42 47 -82t59 -74 q30 -34 58 -65t40 -77q6 -20 -11 -32t-33 -6q-46 14 -83 50t-65 74q-32 40 -59 81t-45 89z" />
<glyph unicode="&#xed;" horiz-adv-x="316" d="M218 1598q10 22 29 27t36 -2t26 -25t1 -42q-18 -48 -45 -89t-59 -81q-30 -38 -66 -74t-82 -50q-16 -6 -34 6t-10 32q12 46 40 76t58 64q32 36 59 76t47 82zM112 1050q2 16 13 24t23 9t23 -6t13 -23q10 -150 19 -300t9 -300q0 -54 1 -111t-4 -113t-17 -110t-38 -104 q-6 -10 -16 -12t-20 0t-18 9t-8 17q-4 62 0 124t9 124t10 125t5 125q-4 132 -8 262t4 260z" />
<glyph unicode="&#xee;" horiz-adv-x="316" d="M112 1050q2 16 13 24t23 9t23 -6t13 -23q10 -150 19 -300t9 -300q0 -54 1 -111t-4 -113t-17 -110t-38 -104q-6 -10 -16 -12t-20 0t-18 9t-8 17q-4 62 0 124t9 124t10 125t5 125q-4 132 -8 262t4 260zM418 1238q8 -8 0 -14t-23 -8t-32 -1t-25 9q-56 46 -95 95t-95 97 q-10 -30 -24 -62t-39 -62t-65 -53t-100 -33q-16 -4 -29 1t-7 13q24 28 67 55t63 57q22 36 36 71t30 69q6 14 36 16t48 -10q44 -28 76 -58t60 -61t55 -61t63 -60z" />
<glyph unicode="&#xef;" horiz-adv-x="316" d="M112 1050q2 16 13 24t23 9t23 -6t13 -23q10 -150 19 -300t9 -300q0 -54 1 -111t-4 -113t-17 -110t-38 -104q-6 -10 -16 -12t-20 0t-18 9t-8 17q-4 62 0 124t9 124t10 125t5 125q-4 132 -8 262t4 260zM376 1404q8 -16 8 -42q10 -24 -12 -42q-8 -10 -22 -14q-4 -2 -16 -7 t-4 1q-14 -10 -33 -7t-25 21q-16 40 0 81t56 61q18 6 32 -2t18 -26q4 -16 -2 -24zM28 1404q8 -16 8 -42q10 -24 -12 -42q-8 -10 -22 -14q-6 -2 -17 -7t-3 1q-14 -10 -33 -7t-25 21q-16 40 0 81t56 61q18 6 32 -2t18 -26q4 -16 -2 -24z" />
<glyph unicode="&#xf0;" horiz-adv-x="794" d="M714 698q8 78 16 162t9 168t-7 168t-28 162q-16 62 -48 120t-78 102t-106 66t-128 10q-62 -10 -95 -48t-44 -88t-2 -105t29 -99q10 -18 32 -14t18 26q-6 32 -10 76t4 83t31 67t75 26q46 0 86 -20t71 -51t53 -71t32 -82q22 -84 24 -172t0 -172q-8 -198 -41 -372t-101 -354 q-6 0 -14 -8q-36 -48 -72 -55t-70 13t-64 59t-55 84t-42 89t-25 72t-15 62t-9 68t3 67t23 59q26 44 72 85t99 61t104 10t91 -68q8 -10 19 -11t19 5t12 16t-4 20q-40 50 -89 75t-101 27t-105 -18t-101 -62q-88 -80 -112 -171t4 -205q8 -38 34 -97t62 -118t80 -110t90 -76 t93 -13t89 78q12 -2 24 2q52 22 83 81t48 130t24 142t13 119z" />
<glyph unicode="&#xf1;" horiz-adv-x="704" d="M110 1276q-16 -16 -36 -17t-37 7t-26 22t-1 30q34 58 106 70t156 -22q34 -16 70 -35t76 -27q26 -6 46 0t36 18t31 25t35 21q18 4 38 -4t22 -26q4 -32 -17 -58t-57 -41t-81 -17t-87 10q-40 12 -76 29t-74 33q-52 20 -74 15t-50 -33zM636 632q10 -162 -1 -322t-13 -322 q0 -22 -14 -31t-31 -8t-31 14t-14 35q2 104 15 222t20 237t-3 234t-54 215q-30 64 -60 82t-61 3t-59 -54t-53 -90t-45 -105t-32 -98q4 -144 -4 -286t-16 -280q-4 -48 -18 -67t-30 -16t-28 24t-12 55v12v44t2 44v205t10 205q2 122 -3 243t-23 243q-4 18 6 28t23 12t26 -4 t17 -24q24 -100 36 -200q20 42 49 84t63 70t75 39t89 -7q60 -22 93 -74t51 -115t23 -129t7 -118z" />
<glyph unicode="&#xf2;" d="M274 1610q-8 24 1 42t26 25t36 2t29 -27q20 -42 47 -82t59 -74q30 -34 58 -65t40 -77q6 -20 -11 -32t-33 -6q-46 14 -83 50t-65 74q-32 40 -59 81t-45 89zM754 780q18 -84 23 -188t-12 -206t-62 -191t-129 -141q-96 -60 -177 -58t-144 48t-108 126t-68 177t-24 202 t23 198t74 166t128 109q76 58 153 60t142 -36t114 -108t67 -158zM550 134q52 50 83 120t45 148t11 157t-17 145q-6 32 -15 67t-23 70t-34 64t-48 49q-36 26 -70 30t-67 -5t-66 -26t-67 -33q-14 -6 -26 -2q-46 -48 -72 -112t-37 -133t-8 -139t15 -132q8 -42 26 -93t45 -98 t61 -84t76 -53t89 -4t99 64z" />
<glyph unicode="&#xf3;" d="M466 1650q10 22 29 27t36 -2t26 -25t1 -42q-18 -48 -45 -89t-59 -81q-30 -38 -66 -74t-82 -50q-16 -6 -34 6t-10 32q12 46 40 76t58 64q32 36 59 76t47 82zM754 780q18 -84 23 -188t-12 -206t-62 -191t-129 -141q-96 -60 -177 -58t-144 48t-108 126t-68 177t-24 202 t23 198t74 166t128 109q76 58 153 60t142 -36t114 -108t67 -158zM550 134q52 50 83 120t45 148t11 157t-17 145q-6 32 -15 67t-23 70t-34 64t-48 49q-36 26 -70 30t-67 -5t-66 -26t-67 -33q-14 -6 -26 -2q-46 -48 -72 -112t-37 -133t-8 -139t15 -132q8 -42 26 -93t45 -98 t61 -84t76 -53t89 -4t99 64z" />
<glyph unicode="&#xf4;" d="M674 1364q8 -8 0 -14t-23 -8t-32 -1t-25 9q-56 46 -95 95t-95 97q-10 -30 -24 -62t-39 -62t-65 -53t-100 -33q-16 -4 -29 1t-7 13q24 28 67 55t63 57q22 36 36 71t30 69q6 14 36 16t48 -10q44 -28 76 -58t60 -61t55 -61t63 -60zM754 780q18 -84 23 -188t-12 -206 t-62 -191t-129 -141q-96 -60 -177 -58t-144 48t-108 126t-68 177t-24 202t23 198t74 166t128 109q76 58 153 60t142 -36t114 -108t67 -158zM550 134q52 50 83 120t45 148t11 157t-17 145q-6 32 -15 67t-23 70t-34 64t-48 49q-36 26 -70 30t-67 -5t-66 -26t-67 -33 q-14 -6 -26 -2q-46 -48 -72 -112t-37 -133t-8 -139t15 -132q8 -42 26 -93t45 -98t61 -84t76 -53t89 -4t99 64z" />
<glyph unicode="&#xf5;" d="M168 1266q-16 -16 -36 -17t-37 7t-26 22t-1 30q34 58 106 70t156 -22q34 -16 70 -35t76 -27q26 -6 46 0t36 18t31 25t35 21q18 4 38 -4t22 -26q4 -32 -17 -58t-57 -41t-81 -17t-87 10q-40 12 -76 29t-74 33q-52 20 -74 15t-50 -33zM754 780q18 -84 23 -188t-12 -206 t-62 -191t-129 -141q-96 -60 -177 -58t-144 48t-108 126t-68 177t-24 202t23 198t74 166t128 109q76 58 153 60t142 -36t114 -108t67 -158zM550 134q52 50 83 120t45 148t11 157t-17 145q-6 32 -15 67t-23 70t-34 64t-48 49q-36 26 -70 30t-67 -5t-66 -26t-67 -33 q-14 -6 -26 -2q-46 -48 -72 -112t-37 -133t-8 -139t15 -132q8 -42 26 -93t45 -98t61 -84t76 -53t89 -4t99 64z" />
<glyph unicode="&#xf6;" d="M646 1454q8 -16 8 -42q10 -24 -12 -42q-8 -10 -22 -14q-4 -2 -16 -7t-4 1q-14 -10 -33 -7t-25 21q-16 40 0 81t56 61q18 6 32 -2t18 -26q4 -16 -2 -24zM298 1454q8 -16 8 -42q10 -24 -12 -42q-8 -10 -22 -14q-6 -2 -17 -7t-3 1q-14 -10 -33 -7t-25 21q-16 40 0 81t56 61 q18 6 32 -2t18 -26q4 -16 -2 -24zM754 780q18 -84 23 -188t-12 -206t-62 -191t-129 -141q-96 -60 -177 -58t-144 48t-108 126t-68 177t-24 202t23 198t74 166t128 109q76 58 153 60t142 -36t114 -108t67 -158zM550 134q52 50 83 120t45 148t11 157t-17 145q-6 32 -15 67 t-23 70t-34 64t-48 49q-36 26 -70 30t-67 -5t-66 -26t-67 -33q-14 -6 -26 -2q-46 -48 -72 -112t-37 -133t-8 -139t15 -132q8 -42 26 -93t45 -98t61 -84t76 -53t89 -4t99 64z" />
<glyph unicode="&#xf7;" horiz-adv-x="924" d="M536 1056q8 -16 8 -42q8 -22 -12 -42q-8 -10 -22 -14q-4 -2 -15 -7t-3 1q-14 -10 -34 -7t-26 21q-16 40 0 82t58 60q16 6 30 -2t18 -24q4 -18 -2 -26zM490 616q8 -18 6 -42q4 -10 1 -22t-11 -20q-4 -4 -12 -7t-14 -7q-4 -2 -14 -6t-4 2q-12 -12 -32 -8t-28 20 q-14 40 3 83t57 59q16 8 31 0t19 -24q2 -10 1 -16t-3 -12zM112 750q-32 0 -47 10t-14 24t16 28t41 18q168 28 355 26t357 -18q40 -4 58 -21t15 -35t-26 -31t-63 -9q-176 18 -345 14t-347 -6z" />
<glyph unicode="&#xf8;" d="M692 1602q6 12 17 16t20 0t15 -13t2 -23q-56 -228 -110 -462t-117 -465t-139 -458t-176 -439q-12 -26 -33 -31t-38 4t-25 30t6 45q78 138 133 285t97 299t78 306t74 308t84 304t112 294zM754 780q18 -84 23 -188t-12 -206t-62 -191t-129 -141q-96 -60 -177 -58t-144 48 t-108 126t-68 177t-24 202t23 198t74 166t128 109q76 58 153 60t142 -36t114 -108t67 -158zM550 134q52 50 83 120t45 148t11 157t-17 145q-6 32 -15 67t-23 70t-34 64t-48 49q-36 26 -70 30t-67 -5t-66 -26t-67 -33q-14 -6 -26 -2q-46 -48 -72 -112t-37 -133t-8 -139 t15 -132q8 -42 26 -93t45 -98t61 -84t76 -53t89 -4t99 64z" />
<glyph unicode="&#xf9;" horiz-adv-x="772" d="M244 1610q-8 24 1 42t26 25t36 2t29 -27q20 -42 47 -82t59 -74q30 -34 58 -65t40 -77q6 -20 -11 -32t-33 -6q-46 14 -83 50t-65 74q-32 40 -59 81t-45 89zM692 70q18 -12 19 -30t-9 -31t-26 -18t-34 7q-46 30 -76 74t-46 96q-28 -74 -81 -127t-139 -43q-94 12 -148 78 t-81 164t-30 214t4 230t19 212t18 158q0 12 10 19t20 8t20 -5t10 -20q4 -42 -1 -130t-9 -195t-1 -221t20 -207t54 -154t103 -63q78 -2 123 48t67 132q-4 42 -6 83t-2 81q0 18 11 26t25 6q6 88 4 182t-4 179t0 154t14 111q4 14 14 19t22 3t21 -9t13 -19q24 -78 26 -173 t-8 -194t-27 -194t-31 -173q6 -78 31 -155t91 -123z" />
<glyph unicode="&#xfa;" horiz-adv-x="772" d="M434 1650q10 22 29 27t36 -2t26 -25t1 -42q-18 -48 -45 -89t-59 -81q-30 -38 -66 -74t-82 -50q-16 -6 -34 6t-10 32q12 46 40 76t58 64q32 36 59 76t47 82zM692 70q18 -12 19 -30t-9 -31t-26 -18t-34 7q-46 30 -76 74t-46 96q-28 -74 -81 -127t-139 -43q-94 12 -148 78 t-81 164t-30 214t4 230t19 212t18 158q0 12 10 19t20 8t20 -5t10 -20q4 -42 -1 -130t-9 -195t-1 -221t20 -207t54 -154t103 -63q78 -2 123 48t67 132q-4 42 -6 83t-2 81q0 18 11 26t25 6q6 88 4 182t-4 179t0 154t14 111q4 14 14 19t22 3t21 -9t13 -19q24 -78 26 -173 t-8 -194t-27 -194t-31 -173q6 -78 31 -155t91 -123z" />
<glyph unicode="&#xfb;" horiz-adv-x="772" d="M646 1364q8 -8 0 -14t-23 -8t-32 -1t-25 9q-56 46 -95 95t-95 97q-10 -30 -24 -62t-39 -62t-65 -53t-100 -33q-16 -4 -29 1t-7 13q24 28 67 55t63 57q22 36 36 71t30 69q6 14 36 16t48 -10q44 -28 76 -58t60 -61t55 -61t63 -60zM692 70q18 -12 19 -30t-9 -31t-26 -18 t-34 7q-46 30 -76 74t-46 96q-28 -74 -81 -127t-139 -43q-94 12 -148 78t-81 164t-30 214t4 230t19 212t18 158q0 12 10 19t20 8t20 -5t10 -20q4 -42 -1 -130t-9 -195t-1 -221t20 -207t54 -154t103 -63q78 -2 123 48t67 132q-4 42 -6 83t-2 81q0 18 11 26t25 6q6 88 4 182 t-4 179t0 154t14 111q4 14 14 19t22 3t21 -9t13 -19q24 -78 26 -173t-8 -194t-27 -194t-31 -173q6 -78 31 -155t91 -123z" />
<glyph unicode="&#xfc;" horiz-adv-x="772" d="M614 1454q8 -16 8 -42q10 -24 -12 -42q-8 -10 -22 -14q-4 -2 -16 -7t-4 1q-14 -10 -33 -7t-25 21q-16 40 0 81t56 61q18 6 32 -2t18 -26q4 -16 -2 -24zM266 1454q8 -16 8 -42q10 -24 -12 -42q-8 -10 -22 -14q-6 -2 -17 -7t-3 1q-14 -10 -33 -7t-25 21q-16 40 0 81t56 61 q18 6 32 -2t18 -26q4 -16 -2 -24zM692 70q18 -12 19 -30t-9 -31t-26 -18t-34 7q-46 30 -76 74t-46 96q-28 -74 -81 -127t-139 -43q-94 12 -148 78t-81 164t-30 214t4 230t19 212t18 158q0 12 10 19t20 8t20 -5t10 -20q4 -42 -1 -130t-9 -195t-1 -221t20 -207t54 -154 t103 -63q78 -2 123 48t67 132q-4 42 -6 83t-2 81q0 18 11 26t25 6q6 88 4 182t-4 179t0 154t14 111q4 14 14 19t22 3t21 -9t13 -19q24 -78 26 -173t-8 -194t-27 -194t-31 -173q6 -78 31 -155t91 -123z" />
<glyph unicode="&#xfd;" horiz-adv-x="888" d="M494 1650q10 22 29 27t36 -2t26 -25t1 -42q-18 -48 -45 -89t-59 -81q-30 -38 -66 -74t-82 -50q-16 -6 -34 6t-10 32q12 46 40 76t58 64q32 36 59 76t47 82zM778 1098q6 20 28 15t20 -25q-18 -250 -78 -506t-146 -492q-30 -82 -68 -172t-90 -170t-123 -138t-169 -74 q-16 -4 -33 7t-21 29q-4 56 -11 110t-11 110q0 22 13 36t30 17t32 -6t19 -31q4 -34 1 -74t2 -67t23 -31t64 36q90 78 146 182q16 32 31 63t31 65q-14 0 -20 18q-50 118 -103 247t-101 263t-85 268t-53 260q-2 20 8 31t24 14t27 -5t17 -26q50 -248 118 -489t194 -459 q8 -14 12 -32q22 58 42 117t36 119q28 98 49 198l42 200t45 198t58 194z" />
<glyph unicode="&#xfe;" horiz-adv-x="680" d="M380 984q62 -28 111 -78t81 -113t47 -133t13 -136q-2 -62 -18 -133t-46 -138t-71 -125t-95 -96q-56 -40 -100 -38t-77 31t-54 76t-31 99v-63v-102t-1 -120t-1 -120v-102v-63q0 -20 -13 -29t-29 -8t-29 12t-13 33v287v327v346t2 345t5 326t9 287q0 12 9 18t19 7t18 -5 t8 -18q10 -164 13 -329t5 -329q38 58 98 88t140 -4zM558 530q0 50 -10 106t-32 109t-56 96t-82 71q-46 26 -83 21t-66 -28t-51 -60t-36 -75v-255t-2 -255q8 14 22 21t29 6t27 -10t16 -29q2 -12 6 -41t12 -58t22 -50t36 -17q34 6 63 36t49 58q52 76 93 168t43 186z" />
<glyph unicode="&#xff;" horiz-adv-x="888" d="M674 1454q8 -16 8 -42q10 -24 -12 -42q-8 -10 -22 -14q-4 -2 -16 -7t-4 1q-14 -10 -33 -7t-25 21q-16 40 0 81t56 61q18 6 32 -2t18 -26q4 -16 -2 -24zM326 1454q8 -16 8 -42q10 -24 -12 -42q-8 -10 -22 -14q-6 -2 -17 -7t-3 1q-14 -10 -33 -7t-25 21q-16 40 0 81t56 61 q18 6 32 -2t18 -26q4 -16 -2 -24zM778 1098q6 20 28 15t20 -25q-18 -250 -78 -506t-146 -492q-30 -82 -68 -172t-90 -170t-123 -138t-169 -74q-16 -4 -33 7t-21 29q-4 56 -11 110t-11 110q0 22 13 36t30 17t32 -6t19 -31q4 -34 1 -74t2 -67t23 -31t64 36q90 78 146 182 q16 32 31 63t31 65q-14 0 -20 18q-50 118 -103 247t-101 263t-85 268t-53 260q-2 20 8 31t24 14t27 -5t17 -26q50 -248 118 -489t194 -459q8 -14 12 -32q22 58 42 117t36 119q28 98 49 198l42 200t45 198t58 194z" />
<glyph unicode="&#x152;" horiz-adv-x="1394" d="M1322 1456q20 0 29 -13t8 -30t-13 -30t-32 -13q-122 2 -251 4t-253 24q4 -158 0 -313t-6 -313q64 -8 125 -11t125 3q16 2 37 7t42 8t42 2t37 -9q12 -8 12 -21t-4 -23q-12 -20 -38 -29t-57 -12t-61 -3h-48q-52 0 -108 2t-104 26v-125t2 -125q0 2 0 -26t1 -71t4 -94t10 -95 t19 -74t30 -30q40 -2 79 -3t79 -3q66 -4 122 -10t118 -28q14 -6 19 -17t2 -23t-13 -21t-24 -7q-116 14 -231 17t-229 17q-34 4 -38 36q-40 346 -35 690t21 692q-14 8 -12 22t12 22q2 0 2 2q0 14 8 21t18 9t20 -3t16 -15q62 8 128 7t132 -5t131 -10t127 -6zM154 1424 q132 90 236 94t180 -56t124 -170t70 -245t19 -283t-32 -284t-83 -247t-130 -173q-88 -70 -160 -68t-129 59t-99 156t-67 222t-34 258t0 263t34 238t69 182q-10 10 -11 27t13 27zM542 154q40 54 74 149t56 210t30 241t-2 243t-41 215t-88 156t-141 66t-202 -54 q-44 -84 -66 -184t-29 -204t-3 -207t14 -193q4 -40 18 -111t37 -148t57 -146t77 -105t95 -24t114 96z" />
<glyph unicode="&#x153;" horiz-adv-x="1370" d="M826 526q-20 10 -10 30t26 20q32 0 77 -10t92 -16t90 -3t69 29q46 44 60 105t0 119q-18 78 -70 125t-112 56t-117 -25t-89 -118q-24 -64 -38 -137t-15 -150t11 -151t40 -136q28 -58 72 -110t108 -72q54 -16 86 -6t51 36t29 65t18 81q2 16 12 24t22 9t22 -6t14 -23 q16 -76 -1 -131t-54 -88t-88 -46t-106 -4t-108 40t-91 83q-60 82 -93 197t-35 236t29 234t101 193q68 78 150 93t156 -16t126 -101t58 -164q8 -112 -33 -186t-112 -107t-163 -25t-184 56zM754 780q18 -84 23 -188t-12 -206t-62 -191t-129 -141q-96 -60 -177 -58t-144 48 t-108 126t-68 177t-24 202t23 198t74 166t128 109q76 58 153 60t142 -36t114 -108t67 -158zM550 134q52 50 83 120t45 148t11 157t-17 145q-6 32 -15 67t-23 70t-34 64t-48 49q-36 26 -70 30t-67 -5t-66 -26t-67 -33q-14 -6 -26 -2q-46 -48 -72 -112t-37 -133t-8 -139 t15 -132q8 -42 26 -93t45 -98t61 -84t76 -53t89 -4t99 64z" />
<glyph unicode="&#x178;" horiz-adv-x="798" d="M628 1876q8 -16 8 -42q10 -24 -12 -42q-8 -10 -22 -14q-4 -2 -16 -7t-4 1q-14 -10 -33 -7t-25 21q-16 40 0 81t56 61q18 6 32 -2t18 -26q4 -16 -2 -24zM280 1876q8 -16 8 -42q10 -24 -12 -42q-8 -10 -22 -14q-6 -2 -17 -7t-3 1q-14 -10 -33 -7t-25 21q-16 40 0 81t56 61 q18 6 32 -2t18 -26q4 -16 -2 -24zM408 638q-4 -18 -18 -24q28 -68 34 -147t8 -151q0 -36 1 -78t-2 -84t-11 -83t-28 -73q-8 -14 -20 -16t-22 3t-18 16t-8 23q-4 74 11 149t15 151q-2 84 -12 163t-24 163q-2 14 6 22q-2 4 -3 5t-3 5q-40 94 -71 191t-60 196t-59 198t-68 195 q-8 18 0 33t22 22t30 3t24 -22q34 -80 70 -165t69 -172t59 -177t40 -178q64 180 157 350t181 336q10 20 29 9t13 -31q-36 -106 -84 -208l-96 -204t-91 -206t-71 -214z" />
<glyph unicode="&#x2c6;" horiz-adv-x="662" d="M590 1364q8 -8 0 -14t-23 -8t-32 -1t-25 9q-56 46 -95 95t-95 97q-10 -30 -24 -62t-39 -62t-65 -53t-100 -33q-16 -4 -29 1t-7 13q24 28 67 55t63 57q22 36 36 71t30 69q6 14 36 16t48 -10q44 -28 76 -58t60 -61t55 -61t63 -60z" />
<glyph unicode="&#x2dc;" horiz-adv-x="690" d="M138 1418q-16 -16 -36 -17t-37 7t-26 22t-1 30q34 58 106 70t156 -22q34 -16 70 -35t76 -27q26 -6 46 0t36 18t31 25t35 21q18 4 38 -4t22 -26q4 -32 -17 -58t-57 -41t-81 -17t-87 10q-40 12 -76 29t-74 33q-52 20 -74 15t-50 -33z" />
<glyph unicode="&#x2000;" horiz-adv-x="1051" />
<glyph unicode="&#x2001;" horiz-adv-x="2103" />
<glyph unicode="&#x2002;" horiz-adv-x="1051" />
<glyph unicode="&#x2003;" horiz-adv-x="2103" />
<glyph unicode="&#x2004;" horiz-adv-x="701" />
<glyph unicode="&#x2005;" horiz-adv-x="525" />
<glyph unicode="&#x2006;" horiz-adv-x="350" />
<glyph unicode="&#x2007;" horiz-adv-x="350" />
<glyph unicode="&#x2008;" horiz-adv-x="262" />
<glyph unicode="&#x2009;" horiz-adv-x="420" />
<glyph unicode="&#x200a;" horiz-adv-x="116" />
<glyph unicode="&#x2010;" horiz-adv-x="522" d="M420 736q20 -4 28 -18t6 -29t-13 -26t-29 -7q-84 16 -163 13t-163 -5q-16 0 -22 8t-6 20t7 23t19 15q78 22 167 21t169 -15z" />
<glyph unicode="&#x2011;" horiz-adv-x="522" d="M420 736q20 -4 28 -18t6 -29t-13 -26t-29 -7q-84 16 -163 13t-163 -5q-16 0 -22 8t-6 20t7 23t19 15q78 22 167 21t169 -15z" />
<glyph unicode="&#x2012;" horiz-adv-x="522" d="M420 736q20 -4 28 -18t6 -29t-13 -26t-29 -7q-84 16 -163 13t-163 -5q-16 0 -22 8t-6 20t7 23t19 15q78 22 167 21t169 -15z" />
<glyph unicode="&#x2013;" horiz-adv-x="672" d="M82 630q-14 -4 -23 10t-11 32t3 35t21 21q66 14 131 15t131 -6t132 -17t132 -18q14 -2 20 -17t5 -32t-9 -32t-22 -15q-64 -4 -127 5t-127 18t-128 12t-128 -11z" />
<glyph unicode="&#x2014;" horiz-adv-x="1706" d="M462 668q-24 -4 -38 10t-17 32t6 34t33 20q108 14 215 15t215 -5t215 -16t213 -18q24 -2 34 -17t8 -32t-15 -32t-37 -15q-104 -4 -208 4t-207 17t-207 12t-210 -9z" />
<glyph unicode="&#x2018;" horiz-adv-x="352" d="M212 1708q14 10 29 7t24 -13t9 -25t-12 -29q-30 -28 -52 -62t-32 -70q16 10 38 2t26 -32l4 -16t6 -18q12 -32 -16 -52l4 -24t6 -24q8 -20 -7 -40t-39 -10q-60 24 -96 75t-26 119q10 70 46 120t88 92z" />
<glyph unicode="&#x2019;" horiz-adv-x="316" d="M120 1308q-16 -10 -30 -7t-23 13t-10 25t13 27q30 28 53 63t33 73q-16 -10 -39 -3t-27 29q-2 10 -4 17t-6 17q-10 38 18 54q-4 12 -6 24t-6 22q-8 22 7 42t41 10q58 -24 94 -75t26 -117q-10 -70 -45 -121t-89 -93z" />
<glyph unicode="&#x201a;" horiz-adv-x="306" d="M122 -174q-14 -12 -28 -9t-23 14t-10 26t13 27q28 28 51 63t33 71q-16 -10 -39 -3t-27 31q-2 10 -4 17t-6 17q-6 16 -1 30t17 24q-2 20 -10 46q-10 22 5 42t39 10q58 -24 96 -74t28 -120q-10 -68 -45 -119t-89 -93z" />
<glyph unicode="&#x201c;" horiz-adv-x="500" d="M228 1442q4 -12 4 -20q-4 -16 -3 -30t1 -30q2 -14 -11 -21t-25 -7t-24 -2l-24 -4q-12 0 -25 5t-17 17q-16 42 -23 89t0 91t31 82t70 60q14 6 25 1t18 -14t6 -22t-11 -21q-38 -34 -53 -70t-11 -78q24 6 44 6q14 0 21 -11t7 -21zM432 1598q-22 -24 -41 -51t-27 -57 q14 8 31 2t21 -24q2 -8 4 -14t4 -14q10 -30 -12 -44q0 -16 8 -36q6 -18 -5 -34t-33 -8q-46 20 -76 61t-22 95t37 95t73 75q12 10 23 8t18 -11t7 -21t-10 -22z" />
<glyph unicode="&#x201d;" horiz-adv-x="490" d="M96 1308q-14 -10 -29 -7t-24 13t-9 25t14 27q28 28 51 63t33 73q-18 -10 -39 -3t-25 29q-2 10 -4 17t-6 17q-12 36 16 54q-2 20 -10 46q-10 22 5 42t39 10q58 -24 96 -75t28 -117q-10 -70 -46 -121t-90 -93zM318 1308q-16 -10 -30 -7t-23 13t-10 25t13 27q30 28 52 63 t32 73q-16 -10 -38 -3t-26 29q-4 10 -5 17t-5 17q-12 36 16 54q-2 20 -10 46q-10 22 5 42t41 10q58 -24 95 -75t27 -117q-10 -70 -45 -121t-89 -93z" />
<glyph unicode="&#x201e;" horiz-adv-x="574" d="M328 1466q-4 6 -6 11t0 11q2 38 0 74q0 20 14 29t30 9t31 2t31 4t31 -4t21 -22q20 -52 28 -110t-1 -114t-40 -102t-87 -74q-16 -8 -30 -2t-21 18t-6 27t13 27q46 40 64 85t16 97q-34 -6 -58 -6q-14 0 -23 12t-9 26q0 2 2 2zM118 1212q-14 -10 -28 -7t-23 13t-10 25t13 29 q30 28 52 62t32 70q-16 -10 -38 -2t-26 32l-4 16t-6 18q-12 34 16 52l-4 24t-6 24q-8 22 7 41t39 9q58 -22 95 -74t27 -118q-10 -70 -46 -121t-90 -93z" />
<glyph unicode="&#x2022;" horiz-adv-x="608" d="M68 746q-26 44 -27 118t15 144v10q-6 54 18 97t64 70t87 32t87 -17q18 2 35 1t35 -5q48 -10 98 -39t68 -79q40 -108 13 -199t-105 -171q-40 -42 -95 -63t-110 -18t-104 32t-79 87z" />
<glyph unicode="&#x2026;" horiz-adv-x="572" d="M152 78q4 -12 -2 -26q4 -14 -6 -30q-10 -14 -31 -25t-37 -7q-18 2 -27 13t-13 25t-3 29t5 25q14 28 40 20q10 8 21 6t19 -8q12 0 18 -2t10 -8t6 -12zM342 78q4 -12 -2 -26q4 -14 -6 -30q-10 -14 -31 -25t-37 -7q-18 2 -27 13t-12 25t-2 29t5 25q4 12 16 18t22 2 q10 8 22 6t20 -8q10 0 16 -2t10 -8t6 -12zM532 78q4 -12 -2 -26q4 -14 -6 -30q-10 -14 -30 -25t-38 -7q-18 2 -27 13t-12 25t-2 29t5 25q4 12 16 18t22 2q10 8 22 6t20 -8q10 0 16 -2t10 -8t6 -12z" />
<glyph unicode="&#x202f;" horiz-adv-x="420" />
<glyph unicode="&#x2039;" horiz-adv-x="584" d="M166 964q40 44 80 85t80 81t79 85t79 99q12 16 21 2t14 -41t3 -58t-12 -49q-84 -132 -176 -229t-186 -187q96 -34 186 -124q22 -20 52 -46t59 -65t52 -91t31 -122q4 -32 -4 -58t-20 -20q-22 12 -43 41t-42 65t-42 71t-43 57q-64 72 -134 115t-140 51q-10 0 -19 16t-9 48 q0 66 14 110t35 74t44 50t41 40z" />
<glyph unicode="&#x203a;" horiz-adv-x="574" d="M406 964q18 -20 40 -40t43 -50t35 -74t14 -110q0 -32 -8 -48t-18 -16q-70 -8 -140 -51t-134 -115q-22 -22 -43 -57t-42 -71t-43 -65t-42 -41q-12 -6 -20 20t-4 58q8 70 31 122t52 91t59 65t52 46q86 90 186 124q-94 90 -186 187t-176 229q-12 18 -13 49t4 58t14 41t21 -2 q38 -54 78 -99t80 -85t80 -81t80 -85z" />
<glyph unicode="&#x205f;" horiz-adv-x="525" />
<glyph unicode="&#x20ac;" horiz-adv-x="740" d="M662 870q4 -54 9 -131t4 -164t-10 -176t-34 -167t-68 -137t-113 -85q-104 -40 -178 -15t-121 98t-71 182t-28 237t9 263t38 259t61 227t76 167q-16 6 -20 25t18 27q92 38 158 26t112 -58t75 -119t46 -154t25 -161t12 -144zM344 60q54 -14 100 36t80 142t54 214t24 252 t-11 257t-51 228t-95 167t-145 72q-36 -68 -76 -189t-69 -265t-42 -295t4 -280t71 -222t156 -117zM684 860q-82 -2 -164 -11t-164 -16t-165 -9t-163 10q-20 2 -22 23t20 25q162 30 332 44t334 14q20 0 28 -12t7 -27t-12 -28t-31 -13zM672 588q-68 4 -141 11t-147 11t-146 0 t-138 -20q-18 -4 -29 -19t-7 -37q-4 14 -5 10t-5 -18q-4 -16 10 -25t24 -1q14 -6 28 -4q70 12 140 11t140 -5l140 -8t140 0q20 0 30 15t9 32t-12 31t-31 16z" />
<glyph unicode="&#x2122;" horiz-adv-x="790" d="M316 1500q24 0 24 -26q0 -10 -7 -19t-19 -9h-44q-8 0 -15 1t-17 1q10 -138 11 -294t-31 -310q-10 -24 -32 -24q-14 0 -20 10t-4 22q20 94 23 190t3 190q0 52 1 107t5 109q-32 -2 -59 -4t-49 -6q-2 0 -3 -1t-3 -1q-24 0 -24 24q-4 24 20 30q48 14 120 14q20 0 38 -1t36 -1 q10 -2 23 -2h23zM730 1288q8 -106 11 -211t-19 -211v-2q-4 -10 -12 -16t-18 -6h-2q-14 0 -20 10t-4 22q22 104 20 209t-8 207q-6 56 -6 108q-64 -110 -68 -288v-2q-4 -22 -26 -22q-18 0 -28 18q-18 68 -41 138t-69 134q2 -14 3 -29t1 -31q10 -110 13 -224t-21 -226 q-4 -18 -20 -18q-20 0 -20 22q10 114 6 226t-12 220q-2 34 -5 69t-5 69q-2 14 8 24q8 8 18 8q12 0 22 -10q52 -52 83 -113t53 -119q28 158 108 248q8 12 22 12q10 0 17 -9t7 -19q0 -46 4 -94t8 -94z" />
<glyph unicode="&#x25fc;" horiz-adv-x="1090" d="M0 1090h1090v-1090h-1090v1090z" />
<glyph unicode="&#xfb01;" horiz-adv-x="966" d="M519 949q2 15 12 22t20.5 8t20 -5.5t11.5 -20.5q9 -137 17 -274t8 -274q0 -50 1 -102t-3.5 -103t-15 -100.5t-33.5 -94.5q-6 -10 -14.5 -11.5t-17.5 0t-16 8t-7 15.5q-4 57 -0.5 113.5t8 113.5t9 114.5t4.5 113.5q-4 121 -7.5 239.5t3.5 237.5zM548 1280q14 -4 20 -14 t5.5 -21t-8.5 -19t-23 -8q-17 0 -30 18q-3 9 -1.5 20t10.5 16q20 17 50 20.5t49 -11.5q20 -14 21 -38t2 -40q0 -11 -6 -19t-13 -12q-25 -13 -53.5 -18.5t-51.5 14.5q-14 11 -27 30.5t-22 33.5q-13 20 2 37.5t35 17.5q19 -2 32.5 -15.5t22.5 -28.5q3 -4 4 -8.5t5 -7.5 q-7 1 -7 2t5 1q5 2 10.5 4t12.5 5q-5 -9 -10.5 -15t-10.5 -14q2 9 2.5 20t0.5 20q4 -7 7.5 -14.5t6.5 -14.5q-7 4 -19 4t-16 -4q4 11 7.5 21t6.5 21q0 -2 2 -2q-11 8 -25 19h4zM312 1530q34 44 72 52t74 -9t66 -54t48 -82t20 -93t-18 -88q-4 -10 -14 -14t-19 -3t-16 9t-3 20 q6 28 -5 61t-30 62t-43 50t-46 24t-39 -16t-21 -69q-6 -48 -6 -100q-2 -58 -2 -117t-4 -119q0 -8 -1 -16t-1 -18q44 -4 87 -3t89 7q20 2 32 -9t15 -26t-5 -30t-28 -17q-42 -6 -92 -10t-102 0q-10 -224 -18 -446t-10 -446q0 -18 -11 -25t-25 -6t-25 11t-11 26q2 224 17 445 t23 445q-54 6 -103 20t-87 42q-22 14 -12 38t34 22q44 -4 85 -15t87 -17v150q0 38 -2 87t0 100t13 97t37 80z" />
<glyph unicode="&#xfb02;" horiz-adv-x="894" d="M590 1554q0 12 8 18t19 7t20 -5t11 -18q22 -190 14 -378t-19 -376t-12 -376t33 -376q4 -22 -8 -35t-29 -16t-32 5t-19 30q-36 188 -38 378t10 380t28 381t14 381zM312 1530q34 44 72 52t74 -9t66 -54t48 -82t20 -93t-18 -88q-4 -10 -14 -14t-19 -3t-16 9t-3 20 q6 28 -5 61t-30 62t-43 50t-46 24t-39 -16t-21 -69q-6 -48 -6 -100q-2 -58 -2 -117t-4 -119q0 -8 -1 -16t-1 -18q44 -4 87 -3t89 7q20 2 32 -9t15 -26t-5 -30t-28 -17q-42 -6 -92 -10t-102 0q-10 -224 -18 -446t-10 -446q0 -18 -11 -25t-25 -6t-25 11t-11 26q2 224 17 445 t23 445q-54 6 -103 20t-87 42q-22 14 -12 38t34 22q44 -4 85 -15t87 -17v150q0 38 -2 87t0 100t13 97t37 80z" />
</font>
</defs>
</svg>
